<?xml version="1.0" encoding="UTF-8"?>
<svg version="1.1" xmlns="http://www.w3.org/2000/svg" width="245" height="400">
<path d="M0 0 C80.85 0 161.7 0 245 0 C245 132 245 264 245 400 C164.15 400 83.3 400 0 400 C0 268 0 136 0 0 Z " fill="#A9C611" transform="translate(0,0)"/>
<path d="M0 0 C0.495 0.99 0.495 0.99 1 2 C2.65 2 4.3 2 6 2 C6 1.34 6 0.68 6 0 C9.71599191 -0.20086443 10.77208445 -0.1519437 14 2 C14.36328125 4.0234375 14.36328125 4.0234375 14.3125 6.375 C14.30863281 7.14585937 14.30476563 7.91671875 14.30078125 8.7109375 C14 11 14 11 12 15 C16.95 15.495 16.95 15.495 22 16 C22 17.98 22 19.96 22 22 C21.07316406 22.06058594 20.14632812 22.12117188 19.19140625 22.18359375 C17.39509766 22.30927734 17.39509766 22.30927734 15.5625 22.4375 C14.36753906 22.51871094 13.17257813 22.59992188 11.94140625 22.68359375 C9.11429756 22.67656114 9.11429756 22.67656114 8 24 C6.47480724 23.91062197 4.95318071 23.75462854 3.4375 23.5625 C2.61121094 23.46066406 1.78492188 23.35882813 0.93359375 23.25390625 C0.29550781 23.17011719 -0.34257812 23.08632813 -1 23 C-1.495 24.485 -1.495 24.485 -2 26 C-2.66 26 -3.32 26 -4 26 C-3.67 24.68 -3.34 23.36 -3 22 C-6.91665108 21.97095136 -10.8332744 21.95318483 -14.75 21.9375 C-15.86117187 21.92912109 -16.97234375 21.92074219 -18.1171875 21.91210938 C-19.18710938 21.90888672 -20.25703125 21.90566406 -21.359375 21.90234375 C-22.34389648 21.89710693 -23.32841797 21.89187012 -24.34277344 21.88647461 C-26.75511147 21.98953756 -28.73262359 22.17935477 -31 23 C-31.33 23.66 -31.66 24.32 -32 25 C-36.875 23.25 -36.875 23.25 -38 21 C-38.721875 21.20625 -39.44375 21.4125 -40.1875 21.625 C-43.44641585 22.05952211 -45.08304504 21.41680669 -48 20 C-48.33 20.66 -48.66 21.32 -49 22 C-49 20.02 -49 18.04 -49 16 C-46.4374282 15.97289877 -43.87514635 15.95311229 -41.3125 15.9375 C-40.2306543 15.92493164 -40.2306543 15.92493164 -39.12695312 15.91210938 C-35.27035522 15.89449934 -31.75521904 16.14069762 -28 17 C-25.30497325 17 -23.56594408 16.65981419 -21 16 C-15.41722358 14.63532132 -11.14271126 15.42864437 -6 18 C-5.67 16.68 -5.34 15.36 -5 14 C-5.66 13.67 -6.32 13.34 -7 13 C-6.67 12.01 -6.34 11.02 -6 10 C-6.99 10.33 -7.98 10.66 -9 11 C-9 10.34 -9 9.68 -9 9 C-10.94603274 8.40929986 -10.94603274 8.40929986 -13 8 C-13.33 8.33 -13.66 8.66 -14 9 C-16.01964199 9.07244053 -18.04167124 9.08377188 -20.0625 9.0625 C-21.16722656 9.05347656 -22.27195312 9.04445313 -23.41015625 9.03515625 C-24.26480469 9.02355469 -25.11945313 9.01195312 -26 9 C-26 6.69 -26 4.38 -26 2 C-25.39003174 1.97494385 -24.78006348 1.9498877 -24.15161133 1.92407227 C-21.37172102 1.8075942 -18.5921266 1.68510368 -15.8125 1.5625 C-14.85279297 1.52318359 -13.89308594 1.48386719 -12.90429688 1.44335938 C-11.97294922 1.40146484 -11.04160156 1.35957031 -10.08203125 1.31640625 C-8.80162964 1.26141968 -8.80162964 1.26141968 -7.49536133 1.20532227 C-4.93545406 0.99468906 -2.50666757 0.55158464 0 0 Z " fill="#A8C21F" transform="translate(129,278)"/>
<path d="M0 0 C1.32 0 2.64 0 4 0 C4 0.99 4 1.98 4 3 C8.06368679 3.77403558 11.86425173 4.0984702 16 4 C16 5.98 16 7.96 16 10 C16.99 10 17.98 10 19 10 C18.505 6.535 18.505 6.535 18 3 C19.62542193 3.64477069 21.25032424 4.29085143 22.875 4.9375 C23.77992188 5.29714844 24.68484375 5.65679687 25.6171875 6.02734375 C28 7 28 7 30 8 C30.33 5.69 30.66 3.38 31 1 C32.32 1.33 33.64 1.66 35 2 C35 7.94 35 13.88 35 20 C31 21 31 21 28 20 C26.8125 17.9375 26.8125 17.9375 26 16 C25.01 16 24.02 16 23 16 C22.79632813 16.64453125 22.59265625 17.2890625 22.3828125 17.953125 C21 20 21 20 18.2421875 20.609375 C16.57542969 20.67898437 16.57542969 20.67898437 14.875 20.75 C13.13089844 20.83121094 13.13089844 20.83121094 11.3515625 20.9140625 C10.24554688 20.94242188 9.13953125 20.97078125 8 21 C7.14148438 21.02835938 6.28296875 21.05671875 5.3984375 21.0859375 C3.59902774 21.11865404 1.79837749 21.06916836 0 21 C-1 20 -1 20 -1.09765625 17.49609375 C-1.08025391 15.98208984 -1.08025391 15.98208984 -1.0625 14.4375 C-1.05347656 13.42558594 -1.04445312 12.41367188 -1.03515625 11.37109375 C-1.02355469 10.58863281 -1.01195312 9.80617188 -1 9 C-1.99 9.33 -2.98 9.66 -4 10 C-4.33 12.97 -4.66 15.94 -5 19 C-5.66 19 -6.32 19 -7 19 C-7.33 19.99 -7.66 20.98 -8 22 C-8.66 22 -9.32 22 -10 22 C-10.19335938 21.07316406 -10.38671875 20.14632812 -10.5859375 19.19140625 C-10.97652344 17.39509766 -10.97652344 17.39509766 -11.375 15.5625 C-11.63023437 14.36753906 -11.88546875 13.17257813 -12.1484375 11.94140625 C-12.42945313 10.97074219 -12.71046875 10.00007813 -13 9 C-13.66 8.67 -14.32 8.34 -15 8 C-15 7.01 -15 6.02 -15 5 C-15.66 5 -16.32 5 -17 5 C-17 5.99 -17 6.98 -17 8 C-17.99 8 -18.98 8 -20 8 C-19.505 8.721875 -19.01 9.44375 -18.5 10.1875 C-16.91577251 13.15792654 -16.6331962 14.6987658 -17 18 C-18 19 -18 19 -21.0625 19.0625 C-22.031875 19.041875 -23.00125 19.02125 -24 19 C-24.33 18.01 -24.66 17.02 -25 16 C-23.02 16.33 -21.04 16.66 -19 17 C-19.33 16.01 -19.66 15.02 -20 14 C-20.66 13.731875 -21.32 13.46375 -22 13.1875 C-22.99 12.5996875 -22.99 12.5996875 -24 12 C-24.75 8.875 -24.75 8.875 -25 6 C-21.68629 3.79086 -20.6553979 3.77518447 -16.8125 3.875 C-15.91144531 3.89304687 -15.01039063 3.91109375 -14.08203125 3.9296875 C-13.39496094 3.95289062 -12.70789063 3.97609375 -12 4 C-12 3.34 -12 2.68 -12 2 C-8.7 2 -5.4 2 -2 2 C-2 2.66 -2 3.32 -2 4 C-1.34 4 -0.68 4 0 4 C0 2.68 0 1.36 0 0 Z " fill="#A9C029" transform="translate(170,80)"/>
<path d="M0 0 C0.99 -0.66 1.98 -1.32 3 -2 C6.00879646 -2.33970283 8.09786724 -2.55524039 11 -2 C13.5625 0.125 13.5625 0.125 16 3 C17.85530199 4.5590773 19.74200878 6.06938859 21.64453125 7.5703125 C23 9 23 9 23 12 C23.99 11.67 24.98 11.34 26 11 C26 12.65 26 14.3 26 16 C25.01 16.33 24.02 16.66 23 17 C22.34 16.67 21.68 16.34 21 16 C21.20625 16.928125 21.4125 17.85625 21.625 18.8125 C22 22 22 22 20 25 C19.34 25 18.68 25 18 25 C18.495 28.465 18.495 28.465 19 32 C16.07120629 31.37240135 13.63904371 30.41377341 11 29 C11 28.01 11 27.02 11 26 C9.68 25.67 8.36 25.34 7 25 C7 24.34 7 23.68 7 23 C6.34 23 5.68 23 5 23 C5 22.34 5 21.68 5 21 C5.66 21 6.32 21 7 21 C7.33 18.36 7.66 15.72 8 13 C7.01 12.67 6.02 12.34 5 12 C4.34 12.66 3.68 13.32 3 14 C3 10.7 3 7.4 3 4 C1.02 4.99 -0.96 5.98 -3 7 C-3 9.31 -3 11.62 -3 14 C-3.99 13.67 -4.98 13.34 -6 13 C-6 12.34 -6 11.68 -6 11 C-7.70735301 12.03568595 -7.70735301 12.03568595 -9 14 C-8.76522801 17.64541845 -8.76522801 17.64541845 -8 21 C-7.34 21 -6.68 21 -6 21 C-6.33 21.99 -6.66 22.98 -7 24 C-9.31 23.67 -11.62 23.34 -14 23 C-14 24.32 -14 25.64 -14 27 C-14.66 27 -15.32 27 -16 27 C-16.33 26.01 -16.66 25.02 -17 24 C-17.99 23.67 -18.98 23.34 -20 23 C-20.33 19.7 -20.66 16.4 -21 13 C-21.99 13.495 -21.99 13.495 -23 14 C-22.45393377 10.17753637 -20.97420582 8.41151824 -18 6 C-16.948125 5.67 -15.89625 5.34 -14.8125 5 C-13.884375 4.67 -12.95625 4.34 -12 4 C-11.6278958 2.67696283 -11.29369827 1.34262065 -11 0 C-6.76281113 -2.66337586 -4.49002562 -1.56174804 0 0 Z " fill="#AAC230" transform="translate(123,314)"/>
<path d="M0 0 C0.99 0 1.98 0 3 0 C3 1.32 3 2.64 3 4 C8.94 3.505 8.94 3.505 15 3 C17.125 10.625 17.125 10.625 16 14 C17.32 14 18.64 14 20 14 C20.33 11.69 20.66 9.38 21 7 C21.66 7 22.32 7 23 7 C23.33 5.68 23.66 4.36 24 3 C23.01 2.67 22.02 2.34 21 2 C22.32 2 23.64 2 25 2 C25 2.66 25 3.32 25 4 C25.66 4 26.32 4 27 4 C27.433125 4.969375 27.86625 5.93875 28.3125 6.9375 C29.7014861 10.27731765 29.7014861 10.27731765 33 11 C33.2475 10.195625 33.495 9.39125 33.75 8.5625 C35 6 35 6 37.125 5.1875 C37.74375 5.125625 38.3625 5.06375 39 5 C39.2475 5.78375 39.495 6.5675 39.75 7.375 C41.17019373 10.35740684 42.00592933 10.8410049 45 12 C45.495 12.495 45.495 12.495 46 13 C46.33 10.36 46.66 7.72 47 5 C47.66 5 48.32 5 49 5 C49 9.62 49 14.24 49 19 C47.02 18.67 45.04 18.34 43 18 C43 17.01 43 16.02 43 15 C42.01 15 41.02 15 40 15 C39.67 16.98 39.34 18.96 39 21 C35.59068103 22.13643966 34.99664544 21.86747764 31.8125 20.5625 C30.73935547 20.13130859 30.73935547 20.13130859 29.64453125 19.69140625 C29.10183594 19.46324219 28.55914062 19.23507813 28 19 C28 18.01 28 17.02 28 16 C26.68 16 25.36 16 24 16 C23.835 16.639375 23.67 17.27875 23.5 17.9375 C22 20 22 20 20.0859375 20.48828125 C18.06424845 20.7275978 16.03158061 20.86893028 14 21 C13.67 19.68 13.34 18.36 13 17 C12.690625 17.9590625 12.690625 17.9590625 12.375 18.9375 C11 21 11 21 7.875 21.75 C6.451875 21.87375 6.451875 21.87375 5 22 C4.67 22.99 4.34 23.98 4 25 C3.67 24.34 3.34 23.68 3 23 C1.68 23.33 0.36 23.66 -1 24 C-1 23.01 -1 22.02 -1 21 C-2.32 21 -3.64 21 -5 21 C-5 14.73 -5 8.46 -5 2 C-3.35 2 -1.7 2 0 2 C0 1.34 0 0.68 0 0 Z " fill="#ADC235" transform="translate(47,80)"/>
<path d="M0 0 C1.98 0.66 3.96 1.32 6 2 C6 2.66 6 3.32 6 4 C8.31 4.33 10.62 4.66 13 5 C13 5.99 13 6.98 13 8 C15.12364481 8.22609337 15.12364481 8.22609337 16.625 6.5 C17.07875 6.005 17.5325 5.51 18 5 C18.495 6.98 18.495 6.98 19 9 C20.32 9 21.64 9 23 9 C23.33 8.01 23.66 7.02 24 6 C27.16678884 4.7289265 30.37733787 4.89734926 33.75 4.9375 C34.73484375 4.94652344 35.7196875 4.95554687 36.734375 4.96484375 C37.85585937 4.98224609 37.85585937 4.98224609 39 5 C39 7.31 39 9.62 39 12 C40.32 12 41.64 12 43 12 C43 12.99 43 13.98 43 15 C41 17 41 17 38.375 17.125 C37.59125 17.08375 36.8075 17.0425 36 17 C36 17.99 36 18.98 36 20 C32.87709365 19.51421457 30.00419641 19.0013988 27 18 C20.56108283 16.4077046 14.6271892 15.7862197 8 16 C7.67 15.34 7.34 14.68 7 14 C6.01 14.495 6.01 14.495 5 15 C5 14.34 5 13.68 5 13 C2.03 12.505 2.03 12.505 -1 12 C-1 13.65 -1 15.3 -1 17 C-2.32 17 -3.64 17 -5 17 C-5 16.34 -5 15.68 -5 15 C-7.31 15 -9.62 15 -12 15 C-12 14.01 -12 13.02 -12 12 C-12.66 12 -13.32 12 -14 12 C-14 12.99 -14 13.98 -14 15 C-14.66 15 -15.32 15 -16 15 C-16.02698189 13.37509046 -16.04638757 11.75005367 -16.0625 10.125 C-16.07410156 9.22007813 -16.08570312 8.31515625 -16.09765625 7.3828125 C-16 5 -16 5 -15 3 C-13.824375 3.165 -12.64875 3.33 -11.4375 3.5 C-7.58726127 3.98728512 -3.87741927 4.08077957 0 4 C0 2.68 0 1.36 0 0 Z " fill="#A6BF1C" transform="translate(108,34)"/>
<path d="M0 0 C0.66 0 1.32 0 2 0 C1.47731534 2.76276177 0.89130413 5.3260876 0 8 C0.33 7.34 0.66 6.68 1 6 C4.56782871 6.55602525 5.92229114 7.68606826 8.125 10.5 C10.19887681 13.1880384 10.19887681 13.1880384 13 15 C13 12.03 13 9.06 13 6 C13.99 6 14.98 6 16 6 C16 10.62 16 15.24 16 20 C13.69 20 11.38 20 9 20 C8.67 19.67 8.34 19.34 8 19 C7.505 20.485 7.505 20.485 7 22 C5.02 22 3.04 22 1 22 C0.67 21.34 0.34 20.68 0 20 C-3.3 20 -6.6 20 -10 20 C-11.32 17.36 -12.64 14.72 -14 12 C-14.99 12.495 -14.99 12.495 -16 13 C-15.34 15.31 -14.68 17.62 -14 20 C-16.95409701 18.62845496 -19.44008376 17.01136276 -22 15 C-22.33 16.65 -22.66 18.3 -23 20 C-23.66 20 -24.32 20 -25 20 C-25 15.38 -25 10.76 -25 6 C-24.34 6 -23.68 6 -23 6 C-22.67 7.32 -22.34 8.64 -22 10 C-21.1646875 8.9790625 -21.1646875 8.9790625 -20.3125 7.9375 C-19.549375 7.298125 -18.78625 6.65875 -18 6 C-16.33333333 6.33333333 -14.66666667 6.66666667 -13 7 C-12.13375 6.0409375 -12.13375 6.0409375 -11.25 5.0625 C-8.57272383 2.60833018 -7.76600385 2.72253122 -4.25 2.75 C-2.83232943 2.81402383 -1.41493551 2.89115881 0 3 C0 2.01 0 1.02 0 0 Z " fill="#AFC436" transform="translate(126,79)"/>
<path d="M0 0 C48.84 0 97.68 0 148 0 C148 0.66 148 1.32 148 2 C133.85436448 2.20334104 119.70854667 2.39008432 105.5625 2.5625 C103.99662895 2.5815999 103.99662895 2.5815999 102.39912415 2.60108566 C67.9081665 3.01646022 33.48219187 2.98412158 -1 2 C-0.67 1.34 -0.34 0.68 0 0 Z " fill="#A9BF2D" transform="translate(48,68)"/>
<path d="M0 0 C0.33 0.66 0.66 1.32 1 2 C2.65 2 4.3 2 6 2 C6 1.34 6 0.68 6 0 C9.71599191 -0.20086443 10.77208445 -0.1519437 14 2 C14.36328125 4.0234375 14.36328125 4.0234375 14.3125 6.375 C14.30863281 7.14585937 14.30476563 7.91671875 14.30078125 8.7109375 C14 11 14 11 12 15 C15.3 15.33 18.6 15.66 22 16 C22 17.98 22 19.96 22 22 C19.60458732 22.19585135 17.20907226 22.38192107 14.8125 22.5625 C14.13896484 22.61857422 13.46542969 22.67464844 12.77148438 22.73242188 C8.982869 23.00963763 5.68172206 22.96511161 2 22 C2 20.02 2 18.04 2 16 C2.99 16.33 3.98 16.66 5 17 C5 17.66 5 18.32 5 19 C5.66 19 6.32 19 7 19 C7.309375 18.030625 7.61875 17.06125 7.9375 16.0625 C9 13 9 13 10 12 C9.67 11.34 9.34 10.68 9 10 C4.2458631 9.00955481 -0.24043732 8.95182605 -5.08203125 9.16015625 C-7 9 -7 9 -9 7 C-8.625 4.375 -8.625 4.375 -8 2 C-5.36 1.34 -2.72 0.68 0 0 Z " fill="#B4C937" transform="translate(129,278)"/>
<path d="M0 0 C2.5 1.1875 2.5 1.1875 4.5 3.1875 C2.85 3.5175 1.2 3.8475 -0.5 4.1875 C-0.066875 5.01894531 -0.066875 5.01894531 0.375 5.8671875 C0.931875 6.95386719 0.931875 6.95386719 1.5 8.0625 C1.87125 8.78179687 2.2425 9.50109375 2.625 10.2421875 C3.5 12.1875 3.5 12.1875 3.5 14.1875 C2.51 13.8575 1.52 13.5275 0.5 13.1875 C0.5 12.5275 0.5 11.8675 0.5 11.1875 C-1.20735301 12.22318595 -1.20735301 12.22318595 -2.5 14.1875 C-2.26522801 17.83291845 -2.26522801 17.83291845 -1.5 21.1875 C-0.84 21.1875 -0.18 21.1875 0.5 21.1875 C0.17 22.1775 -0.16 23.1675 -0.5 24.1875 C-2.81 23.8575 -5.12 23.5275 -7.5 23.1875 C-7.5 24.5075 -7.5 25.8275 -7.5 27.1875 C-8.16 27.1875 -8.82 27.1875 -9.5 27.1875 C-9.83 26.1975 -10.16 25.2075 -10.5 24.1875 C-11.49 23.8575 -12.48 23.5275 -13.5 23.1875 C-13.83 19.8875 -14.16 16.5875 -14.5 13.1875 C-15.49 13.6825 -15.49 13.6825 -16.5 14.1875 C-15.95393377 10.36503637 -14.47420582 8.59901824 -11.5 6.1875 C-10.448125 5.8575 -9.39625 5.5275 -8.3125 5.1875 C-7.384375 4.8575 -6.45625 4.5275 -5.5 4.1875 C-4.68553891 2.18177359 -4.68553891 2.18177359 -4.5 0.1875 C-2.5 -0.8125 -2.5 -0.8125 0 0 Z " fill="#E1ED8F" transform="translate(116.5,313.8125)"/>
<path d="M0 0 C1.98 0.66 3.96 1.32 6 2 C6 2.66 6 3.32 6 4 C8.31 4.33 10.62 4.66 13 5 C13 5.33 13 5.66 13 6 C11.35 6 9.7 6 8 6 C8 7.32 8 8.64 8 10 C8.99 10.33 9.98 10.66 11 11 C11 11.66 11 12.32 11 13 C9.02 13.66 7.04 14.32 5 15 C5 14.34 5 13.68 5 13 C2.03 12.505 2.03 12.505 -1 12 C-1 13.65 -1 15.3 -1 17 C-2.32 17 -3.64 17 -5 17 C-5 16.34 -5 15.68 -5 15 C-7.31 15 -9.62 15 -12 15 C-12 14.01 -12 13.02 -12 12 C-12.66 12 -13.32 12 -14 12 C-14 12.99 -14 13.98 -14 15 C-14.66 15 -15.32 15 -16 15 C-16.02698189 13.37509046 -16.04638757 11.75005367 -16.0625 10.125 C-16.07410156 9.22007813 -16.08570312 8.31515625 -16.09765625 7.3828125 C-16 5 -16 5 -15 3 C-13.824375 3.165 -12.64875 3.33 -11.4375 3.5 C-7.58726127 3.98728512 -3.87741927 4.08077957 0 4 C0 2.68 0 1.36 0 0 Z " fill="#A9C614" transform="translate(108,34)"/>
<path d="M0 0 C0.99 0 1.98 0 3 0 C3 1.32 3 2.64 3 4 C8.94 3.505 8.94 3.505 15 3 C14.67 4.32 14.34 5.64 14 7 C11.69 6.34 9.38 5.68 7 5 C7 9.62 7 14.24 7 19 C8.65 18.67 10.3 18.34 12 18 C11.67 18.99 11.34 19.98 11 21 C9.02 21.33 7.04 21.66 5 22 C4.67 22.99 4.34 23.98 4 25 C3.67 24.34 3.34 23.68 3 23 C1.68 23.33 0.36 23.66 -1 24 C-1 23.01 -1 22.02 -1 21 C-2.32 21 -3.64 21 -5 21 C-5 14.73 -5 8.46 -5 2 C-3.35 2 -1.7 2 0 2 C0 1.34 0 0.68 0 0 Z " fill="#A9C518" transform="translate(47,80)"/>
<path d="M0 0 C0.87527344 0.07863281 1.75054687 0.15726562 2.65234375 0.23828125 C5.0625 0.6875 5.0625 0.6875 8.0625 2.6875 C8.0625 2.0275 8.0625 1.3675 8.0625 0.6875 C10.3725 0.6875 12.6825 0.6875 15.0625 0.6875 C15.0625 1.3475 15.0625 2.0075 15.0625 2.6875 C14.0725 2.6875 13.0825 2.6875 12.0625 2.6875 C12.0625 3.6775 12.0625 4.6675 12.0625 5.6875 C12.7225 6.0175 13.3825 6.3475 14.0625 6.6875 C13.26553711 6.68226318 12.46857422 6.67702637 11.64746094 6.67163086 C8.03581531 6.650841 4.42418229 6.63783339 0.8125 6.625 C-0.44175781 6.61662109 -1.69601563 6.60824219 -2.98828125 6.59960938 C-4.19355469 6.59638672 -5.39882812 6.59316406 -6.640625 6.58984375 C-7.75083008 6.58460693 -8.86103516 6.57937012 -10.00488281 6.57397461 C-12.52827606 6.67165841 -14.57628251 6.81188761 -16.9375 7.6875 C-17.2675 8.3475 -17.5975 9.0075 -17.9375 9.6875 C-22.8125 7.9375 -22.8125 7.9375 -23.9375 5.6875 C-25.0203125 5.996875 -25.0203125 5.996875 -26.125 6.3125 C-29.38391585 6.74702211 -31.02054504 6.10430669 -33.9375 4.6875 C-34.2675 5.3475 -34.5975 6.0075 -34.9375 6.6875 C-34.9375 4.7075 -34.9375 2.7275 -34.9375 0.6875 C-32.3749282 0.66039877 -29.81264635 0.64061229 -27.25 0.625 C-26.52876953 0.61662109 -25.80753906 0.60824219 -25.06445312 0.59960938 C-21.20785522 0.58199934 -17.69271904 0.82819762 -13.9375 1.6875 C-8.85739311 1.6875 -5.0686417 -0.49867694 0 0 Z " fill="#B3CA3F" transform="translate(114.9375,293.3125)"/>
<path d="M0 0 C0 0.33 0 0.66 0 1 C-0.8205122 1.00634791 -0.8205122 1.00634791 -1.6576004 1.01282406 C-15.0406137 1.11666379 -28.42357943 1.22542946 -41.80651093 1.33933926 C-48.27870628 1.3942825 -54.75090632 1.4476535 -61.22314453 1.49731445 C-67.48017402 1.54538392 -73.73715491 1.59773606 -79.99412537 1.65294075 C-82.37005894 1.67317327 -84.74600574 1.69191518 -87.1219635 1.70907402 C-98.71075147 1.79368586 -110.25326287 1.91768394 -121.81335449 2.78283691 C-126.54498548 3.10528746 -131.25988455 3.11094458 -136 3.0625 C-136.88171875 3.05798828 -137.7634375 3.05347656 -138.671875 3.04882812 C-140.78128164 3.03736396 -142.89065189 3.01945096 -145 3 C-144.67 2.34 -144.34 1.68 -144 1 C-141.09448242 0.60571289 -141.09448242 0.60571289 -137.16796875 0.41015625 C-136.45553513 0.37334244 -135.7431015 0.33652863 -135.00907898 0.29859924 C-126.11551541 -0.13638495 -117.21393813 -0.36356343 -108.3125 -0.5625 C-106.94582687 -0.59376984 -106.94582687 -0.59376984 -105.55154419 -0.62567139 C-70.34653046 -1.41669244 -35.20057947 -0.82623247 0 0 Z " fill="#B2C83D" transform="translate(173,65)"/>
<path d="M0 0 C0 4.95 0 9.9 0 15 C-4.95 15 -9.9 15 -15 15 C-15 10.38 -15 5.76 -15 1 C-9.87905444 0.37927933 -5.18762951 0 0 0 Z " fill="#AFC23B" transform="translate(186,84)"/>
<path d="M0 0 C2.20703125 0.44140625 2.20703125 0.44140625 4.20703125 2.44140625 C3.66355299 8.52836277 3.66355299 8.52836277 2.20703125 11.44140625 C3.19703125 11.44140625 4.18703125 11.44140625 5.20703125 11.44140625 C5.20703125 12.43140625 5.20703125 13.42140625 5.20703125 14.44140625 C-0.73296875 14.44140625 -6.67296875 14.44140625 -12.79296875 14.44140625 C-12.79296875 5.91384861 -12.79296875 5.91384861 -9.5625 1.76171875 C-6.57021587 -0.47093475 -3.61094844 -0.16782519 0 0 Z " fill="#ADC52A" transform="translate(211.79296875,350.55859375)"/>
<path d="M0 0 C1.32 0.33 2.64 0.66 4 1 C4 6.94 4 12.88 4 19 C0 20 0 20 -3 19 C-4.1875 16.9375 -4.1875 16.9375 -5 15 C-5.99 15 -6.98 15 -8 15 C-8.33 15.99 -8.66 16.98 -9 18 C-9.66 18 -10.32 18 -11 18 C-11 13.38 -11 8.76 -11 4 C-4.25 5.125 -4.25 5.125 -1 7 C-0.67 4.69 -0.34 2.38 0 0 Z " fill="#A8BD39" transform="translate(201,81)"/>
<path d="M0 0 C0.33 2.64 0.66 5.28 1 8 C2.32 8 3.64 8 5 8 C5.33 8.33 5.66 8.66 6 9 C5.91062197 10.52519276 5.75462854 12.04681929 5.5625 13.5625 C5.46066406 14.38878906 5.35882813 15.21507812 5.25390625 16.06640625 C5.17011719 16.70449219 5.08632812 17.34257812 5 18 C4.01 17.67 3.02 17.34 2 17 C2 17.66 2 18.32 2 19 C2.66 19.33 3.32 19.66 4 20 C2.02 20.99 2.02 20.99 0 22 C-0.33 20.02 -0.66 18.04 -1 16 C-1.99 15.67 -2.98 15.34 -4 15 C-3.125 10.125 -3.125 10.125 -2 9 C-2.66 8.67 -3.32 8.34 -4 8 C-4.17015625 8.56589844 -4.3403125 9.13179688 -4.515625 9.71484375 C-4.75796875 10.44832031 -5.0003125 11.18179687 -5.25 11.9375 C-5.59804687 13.03384766 -5.59804687 13.03384766 -5.953125 14.15234375 C-7 16 -7 16 -9.109375 16.75390625 C-10.04523438 16.87572266 -10.04523438 16.87572266 -11 17 C-13 14 -13 14 -12.625 10.8125 C-12.41875 9.884375 -12.2125 8.95625 -12 8 C-11.01 7.67 -10.02 7.34 -9 7 C-8.01 7.99 -7.02 8.98 -6 10 C-6.33 7.36 -6.66 4.72 -7 2 C-2.25 0 -2.25 0 0 0 Z " fill="#AAC320" transform="translate(126,318)"/>
<path d="M0 0 C1.27133789 0.00966797 1.27133789 0.00966797 2.56835938 0.01953125 C3.8899707 0.04466797 3.8899707 0.04466797 5.23828125 0.0703125 C6.57729492 0.08384766 6.57729492 0.08384766 7.94335938 0.09765625 C10.14610439 0.12121502 12.34830713 0.15410921 14.55078125 0.1953125 C14.55078125 1.1853125 14.55078125 2.1753125 14.55078125 3.1953125 C13.23078125 3.1953125 11.91078125 3.1953125 10.55078125 3.1953125 C10.55078125 7.8153125 10.55078125 12.4353125 10.55078125 17.1953125 C9.56078125 17.5253125 8.57078125 17.8553125 7.55078125 18.1953125 C7.35742188 17.26847656 7.1640625 16.34164062 6.96484375 15.38671875 C6.70445312 14.18917969 6.4440625 12.99164063 6.17578125 11.7578125 C5.92054688 10.56285156 5.6653125 9.36789063 5.40234375 8.13671875 C5.12132812 7.16605469 4.8403125 6.19539063 4.55078125 5.1953125 C3.89078125 4.8653125 3.23078125 4.5353125 2.55078125 4.1953125 C2.55078125 3.2053125 2.55078125 2.2153125 2.55078125 1.1953125 C1.89078125 1.1953125 1.23078125 1.1953125 0.55078125 1.1953125 C0.55078125 2.1853125 0.55078125 3.1753125 0.55078125 4.1953125 C-0.43921875 4.1953125 -1.42921875 4.1953125 -2.44921875 4.1953125 C-1.95421875 4.9171875 -1.45921875 5.6390625 -0.94921875 6.3828125 C0.63500874 9.35323904 0.91758505 10.8940783 0.55078125 14.1953125 C-0.44921875 15.1953125 -0.44921875 15.1953125 -3.51171875 15.2578125 C-4.48109375 15.2371875 -5.45046875 15.2165625 -6.44921875 15.1953125 C-6.77921875 14.2053125 -7.10921875 13.2153125 -7.44921875 12.1953125 C-4.47921875 12.6903125 -4.47921875 12.6903125 -1.44921875 13.1953125 C-1.77921875 12.2053125 -2.10921875 11.2153125 -2.44921875 10.1953125 C-3.10921875 9.9271875 -3.76921875 9.6590625 -4.44921875 9.3828125 C-5.43921875 8.795 -5.43921875 8.795 -6.44921875 8.1953125 C-7.19921875 5.0703125 -7.19921875 5.0703125 -7.44921875 2.1953125 C-4.2960709 0.09321393 -3.58818794 -0.0481636 0 0 Z " fill="#AFC43F" transform="translate(152.44921875,83.8046875)"/>
<path d="M0 0 C0.66 0 1.32 0 2 0 C1.50168276 3.68754757 0.89932357 5.60490662 -2 8 C-2 7.34 -2 6.68 -2 6 C-4.64 6 -7.28 6 -10 6 C-10 10.29 -10 14.58 -10 19 C-12.22189824 16.77810176 -12.92598892 14.91517292 -14 12 C-14.99 12.495 -14.99 12.495 -16 13 C-15.34 15.31 -14.68 17.62 -14 20 C-16.95409701 18.62845496 -19.44008376 17.01136276 -22 15 C-22.33 16.65 -22.66 18.3 -23 20 C-23.66 20 -24.32 20 -25 20 C-25 15.38 -25 10.76 -25 6 C-24.34 6 -23.68 6 -23 6 C-22.67 7.32 -22.34 8.64 -22 10 C-21.1646875 8.9790625 -21.1646875 8.9790625 -20.3125 7.9375 C-19.549375 7.298125 -18.78625 6.65875 -18 6 C-16.33333333 6.33333333 -14.66666667 6.66666667 -13 7 C-12.13375 6.0409375 -12.13375 6.0409375 -11.25 5.0625 C-8.57272383 2.60833018 -7.76600385 2.72253122 -4.25 2.75 C-2.83232943 2.81402383 -1.41493551 2.89115881 0 3 C0 2.01 0 1.02 0 0 Z " fill="#ABC330" transform="translate(126,79)"/>
<path d="M0 0 C4.89812469 0.41983926 6.694081 2.52878505 10 6 C11.3303125 6.7425 11.3303125 6.7425 12.6875 7.5 C15.5051356 9.32765553 16.05945489 10.83634827 17 14 C16.01 13.34 15.02 12.68 14 12 C14 15.96 14 19.92 14 24 C13.01 23.67 12.02 23.34 11 23 C11.33 22.67 11.66 22.34 12 22 C12.28313483 18.31924726 12.25385261 15.63463152 10.875 12.1875 C8.51690838 9.43639311 6.47172055 8.8486428 3 8 C3.515625 8.825 4.03125 9.65 4.5625 10.5 C6.40629292 14.98923493 5.89204658 17.29648165 5 22 C6.32 22.33 7.64 22.66 9 23 C9.33 24.65 9.66 26.3 10 28 C9.34 28 8.68 28 8 28 C8 26.68 8 25.36 8 24 C7.05125 24.185625 6.1025 24.37125 5.125 24.5625 C2 25 2 25 0 24 C0 23.34 0 22.68 0 22 C0.66 22 1.32 22 2 22 C2.33 19.36 2.66 16.72 3 14 C2.01 13.67 1.02 13.34 0 13 C-0.66 13.66 -1.32 14.32 -2 15 C-1.35455571 11.51460083 0.10134397 8.97180943 2 6 C1.34 6 0.68 6 0 6 C0 5.34 0 4.68 0 4 C-1.32 3.67 -2.64 3.34 -4 3 C-3.01 2.67 -2.02 2.34 -1 2 C-0.67 1.34 -0.34 0.68 0 0 Z " fill="#EBF6A2" transform="translate(128,313)"/>
<path d="M0 0 C1.32 0.33 2.64 0.66 4 1 C4.99 4.63 5.98 8.26 7 12 C6.34 12 5.68 12 5 12 C5 11.34 5 10.68 5 10 C3.9275 10.309375 2.855 10.61875 1.75 10.9375 C-0.82866222 11.66812096 -3.39512102 12.37482904 -6 13 C-6.33 11.35 -6.66 9.7 -7 8 C-7.99 8.33 -8.98 8.66 -10 9 C-10.33 8.67 -10.66 8.34 -11 8 C-11.33 9.32 -11.66 10.64 -12 12 C-12.66 12 -13.32 12 -14 12 C-14 9.03 -14 6.06 -14 3 C-12.41870971 2.77668801 -10.83478911 2.57195356 -9.25 2.375 C-8.36828125 2.25898437 -7.4865625 2.14296875 -6.578125 2.0234375 C-3.77140122 1.99792183 -2.36615134 2.55156156 0 4 C0 2.68 0 1.36 0 0 Z " fill="#ACC12F" transform="translate(82,37)"/>
<path d="M0 0 C3.96 0.33 7.92 0.66 12 1 C11.67 1.99 11.34 2.98 11 4 C10.67 3.34 10.34 2.68 10 2 C7.69 3.65 5.38 5.3 3 7 C3 5.35 3 3.7 3 2 C2.34 2 1.68 2 1 2 C1 6.62 1 11.24 1 16 C1.66 16 2.32 16 3 16 C3 14.02 3 12.04 3 10 C4.65 10.99 6.3 11.98 8 13 C7.01 13.33 6.02 13.66 5 14 C5 14.99 5 15.98 5 17 C4.01 17.33 3.02 17.66 2 18 C2 18.99 2 19.98 2 21 C-1.7910119 19.55049545 -5.3874638 17.84827434 -9 16 C-8.34 15.67 -7.68 15.34 -7 15 C-6.01 15.33 -5.02 15.66 -4 16 C-4 11.38 -4 6.76 -4 2 C-2.68 2 -1.36 2 0 2 C0 1.34 0 0.68 0 0 Z " fill="#ABC22C" transform="translate(100,83)"/>
<path d="M0 0 C0.66 0.33 1.32 0.66 2 1 C2 1.99 2 2.98 2 4 C3.32 4 4.64 4 6 4 C6.33 3.01 6.66 2.02 7 1 C8 2 8 2 8.09765625 4.06640625 C8.08605469 4.89011719 8.07445312 5.71382812 8.0625 6.5625 C8.05347656 7.38878906 8.04445312 8.21507812 8.03515625 9.06640625 C8.02355469 9.70449219 8.01195312 10.34257813 8 11 C4.49983915 11.87504021 2.43890259 11.88428924 -1 11 C-3.67302019 10.9072941 -6.32412069 10.95540201 -9 11 C-9 10.01 -9 9.02 -9 8 C-8.01 8 -7.02 8 -6 8 C-6.495 7.5875 -6.99 7.175 -7.5 6.75 C-9 5 -9 5 -9 1 C-7.35 1 -5.7 1 -4 1 C-4 1.66 -4 2.32 -4 3 C-3.34 3 -2.68 3 -2 3 C-1.34 2.01 -0.68 1.02 0 0 Z " fill="#CFDF6B" transform="translate(125,39)"/>
<path d="M0 0 C1.66842534 0.32441604 3.33480481 0.65939189 5 1 C5.7425 1.144375 6.485 1.28875 7.25 1.4375 C7.8275 1.623125 8.405 1.80875 9 2 C9.33 2.66 9.66 3.32 10 4 C11.32 3.67 12.64 3.34 14 3 C13.34 5.97 12.68 8.94 12 12 C9.03 12 6.06 12 3 12 C3 11.01 3 10.02 3 9 C2.34 9 1.68 9 1 9 C1 9.99 1 10.98 1 12 C0.34 12 -0.32 12 -1 12 C-1.02698189 10.37509046 -1.04638757 8.75005367 -1.0625 7.125 C-1.07410156 6.22007813 -1.08570312 5.31515625 -1.09765625 4.3828125 C-1 2 -1 2 0 0 Z " fill="#ABC02F" transform="translate(93,37)"/>
<path d="M0 0 C0.99 0 1.98 0 3 0 C3 1.65 3 3.3 3 5 C4.32 5.33 5.64 5.66 7 6 C7.144375 5.195625 7.28875 4.39125 7.4375 3.5625 C8 1 8 1 9 0 C10.66617115 -0.04063832 12.33388095 -0.042721 14 0 C14 1.98 14 3.96 14 6 C13.01 6 12.02 6 11 6 C11 6.66 11 7.32 11 8 C11.99 8 12.98 8 14 8 C14 8.99 14 9.98 14 11 C11.03 11 8.06 11 5 11 C4.67 12.32 4.34 13.64 4 15 C4 14.34 4 13.68 4 13 C3.01 12.67 2.02 12.34 1 12 C-0.26237731 9.47524538 -0.09856404 7.68799534 -0.0625 4.875 C-0.05347656 3.96492188 -0.04445312 3.05484375 -0.03515625 2.1171875 C-0.02355469 1.41851562 -0.01195312 0.71984375 0 0 Z " fill="#AFC43A" transform="translate(153,39)"/>
<path d="M0 0 C7.09952596 0.62009458 14.27695562 0.32682192 21.39526367 0.25146484 C22.49588135 0.24324707 23.59649902 0.2350293 24.73046875 0.2265625 C25.72651123 0.21496094 26.72255371 0.20335937 27.7487793 0.19140625 C30.15625 0.2890625 30.15625 0.2890625 32.15625 1.2890625 C34.78005313 1.44567133 37.38149852 1.5473533 40.0078125 1.60546875 C40.78184418 1.62624985 41.55587585 1.64703094 42.35336304 1.66844177 C44.82923392 1.73389698 47.30521202 1.79280337 49.78125 1.8515625 C51.45834448 1.89475157 53.13542807 1.93836598 54.8125 1.98242188 C58.92697308 2.08957421 63.04155414 2.19085295 67.15625 2.2890625 C67.15625 2.6190625 67.15625 2.9490625 67.15625 3.2890625 C37.47611776 3.45179625 7.82773723 2.99409784 -21.84375 2.2890625 C-21.84375 1.9590625 -21.84375 1.6290625 -21.84375 1.2890625 C-14.3212392 -0.2006655 -7.61648185 -0.81066515 0 0 Z " fill="#A6BF20" transform="translate(145.84375,62.7109375)"/>
<path d="M0 0 C1.98 0 3.96 0 6 0 C5.7834375 0.9590625 5.7834375 0.9590625 5.5625 1.9375 C4.82763202 5.93844788 4.41418889 9.95504896 4 14 C1.625 15.0625 1.625 15.0625 -1 16 C-1.66 15.67 -2.32 15.34 -3 15 C-3.35050464 9.158256 -3.16727335 5.1468192 0 0 Z " fill="#A9BE32" transform="translate(108,321)"/>
<path d="M0 0 C0.66 0 1.32 0 2 0 C2 3.3 2 6.6 2 10 C2.66 10 3.32 10 4 10 C4 9.01 4 8.02 4 7 C4.66 7 5.32 7 6 7 C6 7.99 6 8.98 6 10 C6.99 10 7.98 10 9 10 C8.67 10.99 8.34 11.98 8 13 C6.22950311 13.05410687 4.45853151 13.09284119 2.6875 13.125 C1.20830078 13.15980469 1.20830078 13.15980469 -0.30078125 13.1953125 C-3 13 -3 13 -6 11 C-6.99 10.67 -7.98 10.34 -9 10 C-8.34 9.34 -7.68 8.68 -7 8 C-5.68 8 -4.36 8 -3 8 C-3 8.66 -3 9.32 -3 10 C-2.34 10 -1.68 10 -1 10 C-1.99 7.03 -2.98 4.06 -4 1 C-3.01 1.33 -2.02 1.66 -1 2 C-0.67 1.34 -0.34 0.68 0 0 Z " fill="#ACC32E" transform="translate(90,39)"/>
<path d="M0 0 C0.33 0.66 0.66 1.32 1 2 C-1.31 2 -3.62 2 -6 2 C-5.01 2.99 -4.02 3.98 -3 5 C-3.99 5 -4.98 5 -6 5 C-6 5.66 -6 6.32 -6 7 C-4.68 7 -3.36 7 -2 7 C-2 5.68 -2 4.36 -2 3 C-0.35 3 1.3 3 3 3 C2.67 4.98 2.34 6.96 2 9 C-2.41062136 10.0257259 -4.92630576 10.03684712 -9 8 C-8.67 6.02 -8.34 4.04 -8 2 C-8.66 2 -9.32 2 -10 2 C-10 4.31 -10 6.62 -10 9 C-10.66 9 -11.32 9 -12 9 C-12.125 3.25 -12.125 3.25 -11 1 C-7.43545584 -0.37097852 -3.76644005 -0.07243154 0 0 Z " fill="#BDD63D" transform="translate(164,291)"/>
<path d="M0 0 C1.98 0 3.96 0 6 0 C8.86021837 2.86021837 8 5.04657104 8 9 C8.8974827 11.83378132 8.8974827 11.83378132 10 14 C6.30581799 12.768606 4.64890254 10.79208646 2 8 C2 9.98 2 11.96 2 14 C1.34 14 0.68 14 0 14 C0 9.38 0 4.76 0 0 Z " fill="#E3EE94" transform="translate(54,85)"/>
<path d="M0 0 C4.81429916 2.40714958 6.6345082 4.86962371 10 9 C10.33 6.03 10.66 3.06 11 0 C11.66 0 12.32 0 13 0 C13 4.62 13 9.24 13 14 C12.01 14 11.02 14 10 14 C8.4296875 12.28515625 8.4296875 12.28515625 6.875 10.0625 C6.35679687 9.33160156 5.83859375 8.60070312 5.3046875 7.84765625 C4.87414062 7.23792969 4.44359375 6.62820312 4 6 C3.67 5.67 3.34 5.34 3 5 C2.67 7.97 2.34 10.94 2 14 C1.34 14 0.68 14 0 14 C0 9.38 0 4.76 0 0 Z " fill="#EEF99B" transform="translate(190,85)"/>
<path d="M0 0 C0.99 0 1.98 0 3 0 C3.2475 0.78375 3.495 1.5675 3.75 2.375 C5.17019373 5.35740684 6.00592933 5.8410049 9 7 C9.33 7.33 9.66 7.66 10 8 C10.33 5.36 10.66 2.72 11 0 C11.66 0 12.32 0 13 0 C13 4.62 13 9.24 13 14 C12.34 14 11.68 14 11 14 C9.30859375 12.28515625 9.30859375 12.28515625 7.4375 10.0625 C6.81746094 9.33160156 6.19742188 8.60070312 5.55859375 7.84765625 C5.04425781 7.23792969 4.52992187 6.62820312 4 6 C3.67 5.67 3.34 5.34 3 5 C2.67 7.97 2.34 10.94 2 14 C1.34 14 0.68 14 0 14 C0 9.38 0 4.76 0 0 Z " fill="#ECF699" transform="translate(83,85)"/>
<path d="M0 0 C2.97 0 5.94 0 9 0 C9 1.65 9 3.3 9 5 C9.33 3.68 9.66 2.36 10 1 C11.66666667 1 13.33333333 1 15 1 C15 2.65 15 4.3 15 6 C11.71480525 7.09506492 9.26336585 7.09960608 5.8125 7.0625 C4.18248047 7.04896484 4.18248047 7.04896484 2.51953125 7.03515625 C1.68808594 7.02355469 0.85664062 7.01195312 0 7 C0 4.69 0 2.38 0 0 Z " fill="#D1E25E" transform="translate(103,280)"/>
<path d="M0 0 C5.11476819 -0.63934602 8.67254378 1.59466453 13 4 C12.67 5.32 12.34 6.64 12 8 C11.01 8 10.02 8 9 8 C9 10.64 9 13.28 9 16 C4.05 16.495 4.05 16.495 -1 17 C-1 16.34 -1 15.68 -1 15 C1.64 15 4.28 15 7 15 C7 14.01 7 13.02 7 12 C6.01 12 5.02 12 4 12 C4.33 9.03 4.66 6.06 5 3 C3.35 2.67 1.7 2.34 0 2 C0 1.34 0 0.68 0 0 Z M9 13 C9.99 13.495 9.99 13.495 11 14 C10.67 14.66 10.34 15.32 10 16 C9.67 15.01 9.34 14.02 9 13 Z " fill="#A8C31D" transform="translate(210,350)"/>
<path d="M0 0 C0.99 0.33 1.98 0.66 3 1 C3.391875 2.155 3.78375 3.31 4.1875 4.5 C5.53916021 8.0929634 5.53916021 8.0929634 7.96875 8.68359375 C10.44672615 9.00365224 10.44672615 9.00365224 14 9 C14 9.66 14 10.32 14 11 C12.68 11 11.36 11 10 11 C10 12.32 10 13.64 10 15 C8.35 14.67 6.7 14.34 5 14 C4.67 13.01 4.34 12.02 4 11 C2.35 11 0.7 11 -1 11 C-1.33 9.68 -1.66 8.36 -2 7 C-0.02 7.99 -0.02 7.99 2 9 C1.01 6.36 0.02 3.72 -1 1 C-0.67 0.67 -0.34 0.34 0 0 Z " fill="#A9C421" transform="translate(110,90)"/>
<path d="M0 0 C3 1 3 1 4.16796875 2.92578125 C4.50441406 3.71339844 4.84085938 4.50101562 5.1875 5.3125 C5.53167969 6.09238281 5.87585938 6.87226562 6.23046875 7.67578125 C7 10 7 10 7 14 C6.34 14 5.68 14 5 14 C5 12.68 5 11.36 5 10 C2.69 10 0.38 10 -2 10 C-2.66 11.32 -3.32 12.64 -4 14 C-5.20371769 10.38884694 -4.71183147 9.75890242 -3.125 6.4375 C-2.75632812 5.65246094 -2.38765625 4.86742188 -2.0078125 4.05859375 C-1.34414845 2.70296989 -0.67500608 1.35001216 0 0 Z " fill="#EBF395" transform="translate(72,85)"/>
<path d="M0 0 C2.64 0 5.28 0 8 0 C8 0.66 8 1.32 8 2 C6.35 2 4.7 2 3 2 C3 2.99 3 3.98 3 5 C4.65 5 6.3 5 8 5 C8.33 6.32 8.66 7.64 9 9 C8.01 9.495 8.01 9.495 7 10 C6.01 9.67 5.02 9.34 4 9 C3.67 10.65 3.34 12.3 3 14 C2.01 14 1.02 14 0 14 C0 9.38 0 4.76 0 0 Z " fill="#C2D55B" transform="translate(42,85)"/>
<path d="M0 0 C4.47222222 2.23611111 4.47222222 2.23611111 6.625 5.0625 C8.67119397 8.00824713 8.67119397 8.00824713 11 9 C11 6.03 11 3.06 11 0 C11.66 0 12.32 0 13 0 C13 4.29 13 8.58 13 13 C9.07399037 11.03699519 6.90350441 9.22611601 4 6 C4 5.34 4 4.68 4 4 C3.34 4 2.68 4 2 4 C2 6.97 2 9.94 2 13 C1.34 13 0.68 13 0 13 C0 8.71 0 4.42 0 0 Z " fill="#EFF9A4" transform="translate(128,85)"/>
<path d="M0 0 C3.14839906 -0.34982212 4.62023779 -0.24633224 7.3125 1.5 C9.76157308 5.12825641 9.28810652 7.67840225 9 12 C7.68 12.33 6.36 12.66 5 13 C4.16209211 11.21046815 3.32980604 9.41830305 2.5 7.625 C1.80390625 6.12839844 1.80390625 6.12839844 1.09375 4.6015625 C0 2 0 2 0 0 Z " fill="#A9C12A" transform="translate(131,321)"/>
<path d="M0 0 C0.33 0 0.66 0 1 0 C1 4.62 1 9.24 1 14 C-1.31 14 -3.62 14 -6 14 C-6.33 13.67 -6.66 13.34 -7 13 C-7.33 13.99 -7.66 14.98 -8 16 C-9.9375 15.625 -9.9375 15.625 -12 15 C-12.33 14.34 -12.66 13.68 -13 13 C-12.34 13 -11.68 13 -11 13 C-11 10.03 -11 7.06 -11 4 C-10.34 4 -9.68 4 -9 4 C-7.34375 5.71484375 -7.34375 5.71484375 -5.5 7.9375 C-3.11073001 10.92045179 -3.11073001 10.92045179 0 13 C0 8.71 0 4.42 0 0 Z " fill="#B1C539" transform="translate(141,85)"/>
<path d="M0 0 C2.97 0.495 2.97 0.495 6 1 C5.34 1.66 4.68 2.32 4 3 C3.83318891 6.08347826 3.83318891 6.08347826 4 9 C6.475 9.99 6.475 9.99 9 11 C9 11.99 9 12.98 9 14 C6.03 13.505 6.03 13.505 3 13 C3 13.66 3 14.32 3 15 C2.01 15 1.02 15 0 15 C0 10.05 0 5.1 0 0 Z " fill="#A8C11E" transform="translate(142,83)"/>
<path d="M0 0 C0.99 0 1.98 0 3 0 C3.33 2.31 3.66 4.62 4 7 C4.66 7 5.32 7 6 7 C6 10.3 6 13.6 6 17 C4.68 16.34 3.36 15.68 2 15 C1.34 15 0.68 15 0 15 C0 10.05 0 5.1 0 0 Z " fill="#A9C519" transform="translate(36,82)"/>
<path d="M0 0 C0.66 0 1.32 0 2 0 C2.33 1.32 2.66 2.64 3 4 C3.61875 3.34 4.2375 2.68 4.875 2 C7 0 7 0 9 0 C8.690625 0.598125 8.38125 1.19625 8.0625 1.8125 C6.89790296 4.08956772 6.89790296 4.08956772 6 7 C6.825 7.78375 7.65 8.5675 8.5 9.375 C11 12 11 12 11 14 C8.04590299 12.62845496 5.55991624 11.01136276 3 9 C2.67 10.65 2.34 12.3 2 14 C1.34 14 0.68 14 0 14 C0 9.38 0 4.76 0 0 Z " fill="#E6F29C" transform="translate(101,85)"/>
<path d="M0 0 C0.99 0 1.98 0 3 0 C3 2.31 3 4.62 3 7 C3.99 7 4.98 7 6 7 C6.33 4.69 6.66 2.38 7 0 C8.98 0 10.96 0 13 0 C13 1.98 13 3.96 13 6 C12.34 6 11.68 6 11 6 C11 4.35 11 2.7 11 1 C10.01 1 9.02 1 8 1 C8.33 4.63 8.66 8.26 9 12 C8.01 12.33 7.02 12.66 6 13 C5.484375 13.515625 4.96875 14.03125 4.4375 14.5625 C3.7259375 15.2740625 3.7259375 15.2740625 3 16 C2.34 16 1.68 16 1 16 C0.67 14.35 0.34 12.7 0 11 C1.98 11 3.96 11 6 11 C6 10.01 6 9.02 6 8 C4.68 8 3.36 8 2 8 C2 5.69 2 3.38 2 1 C1.34 0.67 0.68 0.34 0 0 Z " fill="#AAC124" transform="translate(145,38)"/>
<path d="M0 0 C0.66 0.33 1.32 0.66 2 1 C1.67 2.32 1.34 3.64 1 5 C0.34 5 -0.32 5 -1 5 C-1 5.66 -1 6.32 -1 7 C-1.66 7 -2.32 7 -3 7 C-3 8.98 -3 10.96 -3 13 C-3.33 12.34 -3.66 11.68 -4 11 C-4.66 11 -5.32 11 -6 11 C-6.66 7.7 -7.32 4.4 -8 1 C-5.26094655 -0.36952673 -3.02912668 -0.12621361 0 0 Z " fill="#ADC533" transform="translate(179,39)"/>
<path d="M0 0 C2.64 0 5.28 0 8 0 C7.67 0.66 7.34 1.32 7 2 C5.68 2 4.36 2 3 2 C3 3.32 3 4.64 3 6 C4.65 6 6.3 6 8 6 C7.34 6.66 6.68 7.32 6 8 C4.68 8 3.36 8 2 8 C2 9.32 2 10.64 2 12 C3.98 12 5.96 12 8 12 C8 12.66 8 13.32 8 14 C5.36 14 2.72 14 0 14 C0 9.38 0 4.76 0 0 Z " fill="#F0F8A9" transform="translate(171,85)"/>
<path d="M0 0 C1.65 0 3.3 0 5 0 C5 0.66 5 1.32 5 2 C5.99 2.33 6.98 2.66 8 3 C8 5.31 8 7.62 8 10 C5.36 10 2.72 10 0 10 C0 9.01 0 8.02 0 7 C0.99 7 1.98 7 3 7 C2.505 6.5875 2.01 6.175 1.5 5.75 C0 4 0 4 0 0 Z " fill="#ADC338" transform="translate(116,40)"/>
<path d="M0 0 C1.65 0 3.3 0 5 0 C5 3.3 5 6.6 5 10 C2.13822943 11.43088528 0.06624227 10.59991697 -3 10 C-3 10.66 -3 11.32 -3 12 C-3.99 12.33 -4.98 12.66 -6 13 C-6.33 11.35 -6.66 9.7 -7 8 C-4.29120665 6.64560332 -1.99066732 6.93498549 1 7 C1.15149298 3.37114676 1.15149298 3.37114676 0 0 Z " fill="#ABC51E" transform="translate(151,91)"/>
<path d="M0 0 C0.99 0 1.98 0 3 0 C3 1.32 3 2.64 3 4 C8.94 3.505 8.94 3.505 15 3 C14.67 4.32 14.34 5.64 14 7 C11.69 6.34 9.38 5.68 7 5 C7 9.62 7 14.24 7 19 C6.67 19 6.34 19 6 19 C5.95101562 18.21753906 5.90203125 17.43507813 5.8515625 16.62890625 C5.73941406 15.11103516 5.73941406 15.11103516 5.625 13.5625 C5.55539063 12.55316406 5.48578125 11.54382813 5.4140625 10.50390625 C5.27742188 9.67761719 5.14078125 8.85132812 5 8 C4.34 7.67 3.68 7.34 3 7 C3 6.34 3 5.68 3 5 C0.36 5 -2.28 5 -5 5 C-5 4.01 -5 3.02 -5 2 C-3.35 2 -1.7 2 0 2 C0 1.34 0 0.68 0 0 Z " fill="#B1C83B" transform="translate(47,80)"/>
<path d="M0 0 C0.75410156 0.00322266 1.50820312 0.00644531 2.28515625 0.00976562 C3.06246094 0.01814453 3.83976562 0.02652344 4.640625 0.03515625 C5.43339844 0.03966797 6.22617188 0.04417969 7.04296875 0.04882812 C8.99222008 0.0605706 10.94143238 0.07850479 12.890625 0.09765625 C12.890625 1.08765625 12.890625 2.07765625 12.890625 3.09765625 C11.570625 3.42765625 10.250625 3.75765625 8.890625 4.09765625 C8.890625 3.43765625 8.890625 2.77765625 8.890625 2.09765625 C6.90570858 2.36441829 6.90570858 2.36441829 4.890625 3.09765625 C4.560625 4.08765625 4.230625 5.07765625 3.890625 6.09765625 C3.890625 5.43765625 3.890625 4.77765625 3.890625 4.09765625 C3.024375 4.40703125 3.024375 4.40703125 2.140625 4.72265625 C-0.66883542 5.19089965 -1.6188794 4.34290405 -4.109375 3.09765625 C-6.30684631 3.39570632 -6.30684631 3.39570632 -8.109375 4.09765625 C-8.109375 3.10765625 -8.109375 2.11765625 -8.109375 1.09765625 C-5.33213575 0.3107718 -2.88327423 -0.02184299 0 0 Z " fill="#A9C51A" transform="translate(106.109375,298.90234375)"/>
<path d="M0 0 C2.64 0 5.28 0 8 0 C8 0.66 8 1.32 8 2 C6.02 2 4.04 2 2 2 C2 3.32 2 4.64 2 6 C3.98 6 5.96 6 8 6 C8 6.33 8 6.66 8 7 C6.02 7 4.04 7 2 7 C2 8.65 2 10.3 2 12 C3.98 12 5.96 12 8 12 C8 12.66 8 13.32 8 14 C5.36 14 2.72 14 0 14 C0 9.38 0 4.76 0 0 Z " fill="#F0FCA2" transform="translate(116,85)"/>
<path d="M0 0 C1.4540625 0.0309375 1.4540625 0.0309375 2.9375 0.0625 C2.9375 0.7225 2.9375 1.3825 2.9375 2.0625 C1.6175 2.0625 0.2975 2.0625 -1.0625 2.0625 C-0.37038391 5.16208263 -0.37038391 5.16208263 2 6.4375 C3.9375 8.0625 3.9375 8.0625 4.25 10.6875 C3.9375 13.0625 3.9375 13.0625 2.9375 14.0625 C0.93791636 14.10330783 -1.06295254 14.10504356 -3.0625 14.0625 C-3.3925 13.0725 -3.7225 12.0825 -4.0625 11.0625 C-1.0925 11.5575 -1.0925 11.5575 1.9375 12.0625 C1.6075 11.0725 1.2775 10.0825 0.9375 9.0625 C0.2775 8.794375 -0.3825 8.52625 -1.0625 8.25 C-3.0625 7.0625 -3.0625 7.0625 -3.875 4 C-3.936875 3.030625 -3.99875 2.06125 -4.0625 1.0625 C-3.0625 0.0625 -3.0625 0.0625 0 0 Z " fill="#E7F293" transform="translate(149.0625,84.9375)"/>
<path d="M0 0 C1.32 0.33 2.64 0.66 4 1 C4 4.63 4 8.26 4 12 C3.67 12 3.34 12 3 12 C3 9.36 3 6.72 3 4 C2.01 4 1.02 4 0 4 C0 7.3 0 10.6 0 14 C-3.26008643 10.83047153 -6.22237877 7.60062011 -9 4 C-3.25 5.875 -3.25 5.875 -1 7 C-0.67 4.69 -0.34 2.38 0 0 Z " fill="#A9C129" transform="translate(201,81)"/>
<path d="M0 0 C3.3 0 6.6 0 10 0 C10.33 1.65 10.66 3.3 11 5 C6.94568308 6.15837626 4.78187881 5.83691257 1 4 C0.67 4.66 0.34 5.32 0 6 C0 4.02 0 2.04 0 0 Z " fill="#C0D650" transform="translate(80,294)"/>
<path d="M0 0 C3.875 0.875 3.875 0.875 5 2 C4.30232558 8.39534884 4.30232558 8.39534884 3 11 C3.99 11 4.98 11 6 11 C6 11.99 6 12.98 6 14 C3.36 14 0.72 14 -2 14 C-1.731875 13.484375 -1.46375 12.96875 -1.1875 12.4375 C0.32349407 9.33598585 1.65572726 6.17737194 3 3 C1.35 3 -0.3 3 -2 3 C-1.34 2.01 -0.68 1.02 0 0 Z " fill="#E1EF8A" transform="translate(211,351)"/>
<path d="M0 0 C0.99 0 1.98 0 3 0 C3 1.65 3 3.3 3 5 C2.34 5 1.68 5 1 5 C1 7.97 1 10.94 1 14 C-2.73639216 12.75453595 -3.18756513 11.36595047 -5 8 C-4.01 7.34 -3.02 6.68 -2 6 C-1.33820153 4.01954441 -1.33820153 4.01954441 -1 2 C-0.67 1.34 -0.34 0.68 0 0 Z " fill="#AAC421" transform="translate(138,80)"/>
<path d="M0 0 C0.99 0 1.98 0 3 0 C3 0.66 3 1.32 3 2 C2.34 2 1.68 2 1 2 C1 4.97 1 7.94 1 11 C-3.42520109 8.40259936 -5.30891428 6.81309013 -7 2 C-7.99 1.67 -8.98 1.34 -10 1 C-8.35 1 -6.7 1 -5 1 C-4.67 1.99 -4.34 2.98 -4 4 C-3.01 4 -2.02 4 -1 4 C-0.67 2.68 -0.34 1.36 0 0 Z " fill="#ADC23D" transform="translate(93,83)"/>
<path d="M0 0 C0.598125 0.20625 1.19625 0.4125 1.8125 0.625 C1.8125 1.285 1.8125 1.945 1.8125 2.625 C2.4725 2.955 3.1325 3.285 3.8125 3.625 C2.3275 6.1 2.3275 6.1 0.8125 8.625 C-1.0625 8.5 -1.0625 8.5 -3.1875 7.625 C-4.4375 4.5625 -4.4375 4.5625 -5.1875 1.625 C-2.1875 -0.375 -2.1875 -0.375 0 0 Z " fill="#AAC421" transform="translate(79.1875,82.375)"/>
<path d="M0 0 C2.475 0.495 2.475 0.495 5 1 C5.77321882 3.98241547 6.41196203 6.97580475 7 10 C6.01 10 5.02 10 4 10 C4 9.01 4 8.02 4 7 C3.34 7 2.68 7 2 7 C2 7.99 2 8.98 2 10 C1.34 10 0.68 10 0 10 C0 6.7 0 3.4 0 0 Z " fill="#DEEA89" transform="translate(92,39)"/>
<path d="M0 0 C0.99 0.33 1.98 0.66 3 1 C2.34 1.66 1.68 2.32 1 3 C1 4.32 1 5.64 1 7 C0.34 7 -0.32 7 -1 7 C-1 7.99 -1 8.98 -1 10 C0.65 10 2.3 10 4 10 C4 10.99 4 11.98 4 13 C1.36 13 -1.28 13 -4 13 C-4.45732667 7.28341664 -3.52273754 4.51350747 0 0 Z " fill="#E4F092" transform="translate(203,352)"/>
<path d="M0 0 C1.5625 1.5 1.5625 1.5 3 4 C2.96823234 6.77437543 2.50364148 9.25286467 2 12 C3.32 12.33 4.64 12.66 6 13 C6.33 14.65 6.66 16.3 7 18 C6.34 18 5.68 18 5 18 C5 16.68 5 15.36 5 14 C3.576875 14.2784375 3.576875 14.2784375 2.125 14.5625 C-1 15 -1 15 -3 14 C-3 13.34 -3 12.68 -3 12 C-2.34 12 -1.68 12 -1 12 C-0.814375 10.72125 -0.62875 9.4425 -0.4375 8.125 C-0.33308594 7.40570313 -0.22867188 6.68640625 -0.12109375 5.9453125 C0.1684297 3.91859333 0.1684297 3.91859333 -1 2 C-0.67 1.34 -0.34 0.68 0 0 Z " fill="#E4F289" transform="translate(131,323)"/>
<path d="M0 0 C0.33 0 0.66 0 1 0 C1 4.62 1 9.24 1 14 C0.67 13.01 0.34 12.02 0 11 C-2.97 10.505 -2.97 10.505 -6 10 C-4.68 9.67 -3.36 9.34 -2 9 C-2 8.01 -2 7.02 -2 6 C-3.65 5.67 -5.3 5.34 -7 5 C-7 4.01 -7 3.02 -7 2 C-5.02 2 -3.04 2 -1 2 C-0.67 1.34 -0.34 0.68 0 0 Z " fill="#A7BE2A" transform="translate(52,85)"/>
<path d="M0 0 C0.66 0 1.32 0 2 0 C2 0.66 2 1.32 2 2 C4.31 2.33 6.62 2.66 9 3 C9 3.33 9 3.66 9 4 C7.35 4 5.7 4 4 4 C4 5.32 4 6.64 4 8 C4.99 8.33 5.98 8.66 7 9 C7 9.66 7 10.32 7 11 C5.02 11.66 3.04 12.32 1 13 C-0.12556187 9.6233144 0.3123849 7.43807549 1 4 C0.63143136 1.76832815 0.63143136 1.76832815 0 0 Z " fill="#ADC531" transform="translate(112,36)"/>
<path d="M0 0 C3.63 0 7.26 0 11 0 C11 0.66 11 1.32 11 2 C9.68 2 8.36 2 7 2 C7 5.96 7 9.92 7 14 C6.34 14 5.68 14 5 14 C5 10.04 5 6.08 5 2 C3.35 2 1.7 2 0 2 C0 1.34 0 0.68 0 0 Z " fill="#EFFB96" transform="translate(156,85)"/>
<path d="M0 0 C0.33 0 0.66 0 1 0 C1 3.63 1 7.26 1 11 C2.32 11.33 3.64 11.66 5 12 C5 12.99 5 13.98 5 15 C5.66 15.33 6.32 15.66 7 16 C6.443125 15.855625 5.88625 15.71125 5.3125 15.5625 C2.88612396 14.97230042 0.44961731 14.48342365 -2 14 C-1.85970581 11.8537974 -1.71261836 9.70803782 -1.5625 7.5625 C-1.48128906 6.36753906 -1.40007812 5.17257812 -1.31640625 3.94140625 C-1 1 -1 1 0 0 Z " fill="#ADC33A" transform="translate(102,326)"/>
<path d="M0 0 C2.31 0 4.62 0 7 0 C7 0.66 7 1.32 7 2 C6.01 2 5.02 2 4 2 C4 2.99 4 3.98 4 5 C4.66 5.33 5.32 5.66 6 6 C3.03 6 0.06 6 -3 6 C-3 4.35 -3 2.7 -3 1 C-2.01 1.33 -1.02 1.66 0 2 C0 1.34 0 0.68 0 0 Z " fill="#AAC426" transform="translate(123,294)"/>
<path d="M0 0 C0.66 0 1.32 0 2 0 C2.99 2.97 3.98 5.94 5 9 C4.34 9 3.68 9 3 9 C3 8.34 3 7.68 3 7 C0.69 7.66 -1.62 8.32 -4 9 C-2.25 2.25 -2.25 2.25 0 0 Z " fill="#E4F18D" transform="translate(84,40)"/>
<path d="M0 0 C2 1 4 2 6 3 C6 2.34 6 1.68 6 1 C6.99 0.67 7.98 0.34 9 0 C9 2.64 9 5.28 9 8 C8.67 6.68 8.34 5.36 8 4 C6.02 4.99 6.02 4.99 4 6 C3.67 5.67 3.34 5.34 3 5 C2.67 6.32 2.34 7.64 2 9 C1.34 9 0.68 9 0 9 C0 6.03 0 3.06 0 0 Z " fill="#EBF69D" transform="translate(68,40)"/>
<path d="M0 0 C0.99 0.33 1.98 0.66 3 1 C3.66 1 4.32 1 5 1 C5.33 1.99 5.66 2.98 6 4 C6.99 4.66 7.98 5.32 9 6 C8.67 6.99 8.34 7.98 8 9 C6.68 9 5.36 9 4 9 C3.34 8.01 2.68 7.02 2 6 C1.01 5.67 0.02 5.34 -1 5 C-0.67 3.35 -0.34 1.7 0 0 Z " fill="#AAC417" transform="translate(123,34)"/>
<path d="M0 0 C0.33 0.99 0.66 1.98 1 3 C2.99665314 4.68538601 2.99665314 4.68538601 5 6 C4.01 6 3.02 6 2 6 C0.29467677 7.94009522 0.29467677 7.94009522 -1 10 C-1 8.35 -1 6.7 -1 5 C-1.66 5 -2.32 5 -3 5 C-3.33 5.66 -3.66 6.32 -4 7 C-4.70125 6.855625 -5.4025 6.71125 -6.125 6.5625 C-9.07556141 5.98521625 -12.03270151 5.48304859 -15 5 C-14.67 4.34 -14.34 3.68 -14 3 C-12.86111328 3.05220703 -12.86111328 3.05220703 -11.69921875 3.10546875 C-10.70535156 3.13253906 -9.71148437 3.15960938 -8.6875 3.1875 C-7.70136719 3.22230469 -6.71523437 3.25710938 -5.69921875 3.29296875 C-2.95425611 3.24278108 -2.95425611 3.24278108 -1.14453125 1.48828125 C-0.76683594 0.99714844 -0.38914062 0.50601562 0 0 Z " fill="#A7C022" transform="translate(101,289)"/>
<path d="M0 0 C0.99 0 1.98 0 3 0 C3 4.62 3 9.24 3 14 C2.01 14 1.02 14 0 14 C0 9.38 0 4.76 0 0 Z " fill="#E5F08B" transform="translate(183,85)"/>
<path d="M0 0 C1.65 0 3.3 0 5 0 C5 0.66 5 1.32 5 2 C4.01 2 3.02 2 2 2 C2 2.66 2 3.32 2 4 C2.99 4 3.98 4 5 4 C5 4.66 5 5.32 5 6 C4.34 6 3.68 6 3 6 C3 6.66 3 7.32 3 8 C3.99 8 4.98 8 6 8 C6 8.66 6 9.32 6 10 C4.02 10 2.04 10 0 10 C0 6.7 0 3.4 0 0 Z " fill="#E7F290" transform="translate(136,39)"/>
<path d="M0 0 C0.99 0 1.98 0 3 0 C3 2.31 3 4.62 3 7 C4.32 7 5.64 7 7 7 C7 7.99 7 8.98 7 10 C4.69 10 2.38 10 0 10 C0 6.7 0 3.4 0 0 Z " fill="#D4E26F" transform="translate(144,39)"/>
<path d="M0 0 C0.99 0.99 1.98 1.98 3 3 C1.576875 3.12375 1.576875 3.12375 0.125 3.25 C-3.10461791 3.65074923 -3.10461791 3.65074923 -4.375 6.0625 C-4.58125 6.701875 -4.7875 7.34125 -5 8 C-5.99 8 -6.98 8 -8 8 C-9.68798827 9.43750191 -9.68798827 9.43750191 -11 11 C-10.4522505 7.16575347 -8.93768353 5.46130241 -6 3 C-4.03120677 1.93988057 -2.03564133 0.92529151 0 0 Z " fill="#EBF79E" transform="translate(111,317)"/>
<path d="M0 0 C2.97 0 5.94 0 9 0 C8.67 1.32 8.34 2.64 8 4 C7.01 3.01 6.02 2.02 5 1 C5 2.65 5 4.3 5 6 C3.35 6.33 1.7 6.66 0 7 C0 4.69 0 2.38 0 0 Z " fill="#BFD34E" transform="translate(103,280)"/>
<path d="M0 0 C1.32 0 2.64 0 4 0 C4 0.99 4 1.98 4 3 C5.65 3.33 7.3 3.66 9 4 C9 4.33 9 4.66 9 5 C6.36 5 3.72 5 1 5 C1 9.62 1 14.24 1 19 C0.67 19 0.34 19 0 19 C0 12.73 0 6.46 0 0 Z " fill="#AFC638" transform="translate(170,80)"/>
<path d="M0 0 C0.99 0.33 1.98 0.66 3 1 C2.67 4.3 2.34 7.6 2 11 C-0.31 11 -2.62 11 -5 11 C-5 10.67 -5 10.34 -5 10 C-3.02 10 -1.04 10 1 10 C1 9.34 1 8.68 1 8 C0.01 8 -0.98 8 -2 8 C-2 7.34 -2 6.68 -2 6 C-1.34 6 -0.68 6 0 6 C0 5.34 0 4.68 0 4 C-0.99 4 -1.98 4 -3 4 C-3 3.34 -3 2.68 -3 2 C-2.01 2 -1.02 2 0 2 C0 1.34 0 0.68 0 0 Z " fill="#B1C444" transform="translate(141,39)"/>
<path d="M0 0 C1.65 0 3.3 0 5 0 C5 1.98 5 3.96 5 6 C4.01 6 3.02 6 2 6 C2 6.66 2 7.32 2 8 C2.99 8 3.98 8 5 8 C5 8.66 5 9.32 5 10 C3.35 10 1.7 10 0 10 C0 6.7 0 3.4 0 0 Z " fill="#E4F192" transform="translate(162,39)"/>
<path d="M0 0 C1.98 0 3.96 0 6 0 C5.855625 0.70125 5.71125 1.4025 5.5625 2.125 C4.98521625 5.07556141 4.48304859 8.03270151 4 11 C3.01 10.67 2.02 10.34 1 10 C1.33 8.02 1.66 6.04 2 4 C1.01 3.67 0.02 3.34 -1 3 C-0.67 2.01 -0.34 1.02 0 0 Z " fill="#ACC138" transform="translate(108,321)"/>
<path d="M0 0 C2.64 0 5.28 0 8 0 C8 1.98 8 3.96 8 6 C5.36 6 2.72 6 0 6 C0 4.02 0 2.04 0 0 Z " fill="#CDDE62" transform="translate(143,294)"/>
<path d="M0 0 C2.31 0 4.62 0 7 0 C7 0.33 7 0.66 7 1 C5.35 1 3.7 1 2 1 C2 2.65 2 4.3 2 6 C3.65 6 5.3 6 7 6 C7 6.33 7 6.66 7 7 C5.35 7 3.7 7 2 7 C2 9.31 2 11.62 2 14 C1.34 14 0.68 14 0 14 C0 9.38 0 4.76 0 0 Z " fill="#F6FDB2" transform="translate(42,85)"/>
<path d="M0 0 C0.33 0 0.66 0 1 0 C1.04241723 2.33294775 1.04092937 4.66702567 1 7 C0.67 7.33 0.34 7.66 0 8 C0.66 8.66 1.32 9.32 2 10 C1.01 10.495 1.01 10.495 0 11 C0 11.66 0 12.32 0 13 C-0.66 13 -1.32 13 -2 13 C-2.268125 12.195625 -2.53625 11.39125 -2.8125 10.5625 C-3.204375 9.716875 -3.59625 8.87125 -4 8 C-4.99 7.67 -5.98 7.34 -7 7 C-6.67 5.35 -6.34 3.7 -6 2 C-5.01 3.485 -5.01 3.485 -4 5 C-3.01 5 -2.02 5 -1 5 C-0.67 3.35 -0.34 1.7 0 0 Z " fill="#B8CC4E" transform="translate(140,328)"/>
<path d="M0 0 C1.65 0.33 3.3 0.66 5 1 C5 5 5 5 4 7 C2.68 6.67 1.36 6.34 0 6 C0 5.34 0 4.68 0 4 C-1.32 3.67 -2.64 3.34 -4 3 C-3.01 2.67 -2.02 2.34 -1 2 C-0.67 1.34 -0.34 0.68 0 0 Z " fill="#DCE896" transform="translate(128,313)"/>
<path d="M0 0 C3.11257569 0 5.10765685 0.17361624 8 1 C8 2.32 8 3.64 8 5 C8.66 5.33 9.32 5.66 10 6 C8.52093108 6.02689216 7.04172517 6.04634621 5.5625 6.0625 C4.32693359 6.07990234 4.32693359 6.07990234 3.06640625 6.09765625 C1 6 1 6 0 5 C-0.04063832 3.33382885 -0.042721 1.66611905 0 0 Z " fill="#CDE15E" transform="translate(98,294)"/>
<path d="M0 0 C7.23214286 5.89285714 7.23214286 5.89285714 9 10 C7.68 9.67 6.36 9.34 5 9 C5 8.01 5 7.02 5 6 C4.01 6 3.02 6 2 6 C2 6.99 2 7.98 2 9 C1.34 9 0.68 9 0 9 C0 6.03 0 3.06 0 0 Z " fill="#B3C446" transform="translate(85,89)"/>
<path d="M0 0 C2 1.375 2 1.375 4 3 C4 3.66 4 4.32 4 5 C3.34 5 2.68 5 2 5 C2 7.97 2 10.94 2 14 C2.66 14.33 3.32 14.66 4 15 C2.68 15 1.36 15 0 15 C-0.19390729 12.68802845 -0.37996367 10.3753971 -0.5625 8.0625 C-0.71912109 6.13083984 -0.71912109 6.13083984 -0.87890625 4.16015625 C-0.91886719 3.11730469 -0.95882812 2.07445312 -1 1 C-0.67 0.67 -0.34 0.34 0 0 Z " fill="#ACC42F" transform="translate(66,35)"/>
<path d="M0 0 C0.66 0 1.32 0 2 0 C2 1.98 2 3.96 2 6 C3.32 6.66 4.64 7.32 6 8 C4.54182203 8.16802051 3.0834516 8.33437143 1.625 8.5 C0.81289062 8.5928125 0.00078125 8.685625 -0.8359375 8.78125 C-3 9 -3 9 -5 9 C-5 8.34 -5 7.68 -5 7 C-4.34 7 -3.68 7 -3 7 C-3.20625 6.38125 -3.4125 5.7625 -3.625 5.125 C-3.74875 4.42375 -3.8725 3.7225 -4 3 C-3.34 2.34 -2.68 1.68 -2 1 C-2 2.98 -2 4.96 -2 7 C-1.34 7 -0.68 7 0 7 C0 4.69 0 2.38 0 0 Z " fill="#A5BD27" transform="translate(154,293)"/>
<path d="M0 0 C2.97 0 5.94 0 9 0 C8.34 2.31 7.68 4.62 7 7 C4.47154472 5.73577236 4.23577236 4.47154472 3 2 C2.34 1.67 1.68 1.34 1 1 C1 2.65 1 4.3 1 6 C0.01 5.34 -0.98 4.68 -2 4 C-1.34 4 -0.68 4 0 4 C0 2.68 0 1.36 0 0 Z " fill="#ABBF34" transform="translate(112,280)"/>
<path d="M0 0 C0.99 0.33 1.98 0.66 3 1 C2.34 2.65 1.68 4.3 1 6 C2.65 6 4.3 6 6 6 C6 6.66 6 7.32 6 8 C4.68 8 3.36 8 2 8 C2 9.98 2 11.96 2 14 C1.34 14 0.68 14 0 14 C0 9.38 0 4.76 0 0 Z " fill="#EFF7A8" transform="translate(54,85)"/>
<path d="M0 0 C2.4375 0.375 2.4375 0.375 5 1 C5.33 1.66 5.66 2.32 6 3 C4.68 3.33 3.36 3.66 2 4 C2.33 4.598125 2.66 5.19625 3 5.8125 C4 8 4 8 4 11 C3.34 11 2.68 11 2 11 C-0.32590854 7.36576791 -0.16265833 4.22911669 0 0 Z " fill="#ADC432" transform="translate(169,36)"/>
<path d="M0 0 C1.32 0.66 2.64 1.32 4 2 C3.67 4.97 3.34 7.94 3 11 C2.01 10.67 1.02 10.34 0 10 C0 10.66 0 11.32 0 12 C0.66 12.33 1.32 12.66 2 13 C1.01 13 0.02 13 -1 13 C-1 11.68 -1 10.36 -1 9 C-0.34 8.67 0.32 8.34 1 8 C1.65555119 5.47266765 1.65555119 5.47266765 2 3 C1.01 3 0.02 3 -1 3 C-0.67 2.01 -0.34 1.02 0 0 Z " fill="#ACC03F" transform="translate(128,325)"/>
<path d="M0 0 C1.32 0.33 2.64 0.66 4 1 C4 3.31 4 5.62 4 8 C3.01 7.67 2.02 7.34 1 7 C1 6.34 1 5.68 1 5 C0.34 5 -0.32 5 -1 5 C-1.33 5.66 -1.66 6.32 -2 7 C-2 5.35 -2 3.7 -2 2 C-1.34 1.67 -0.68 1.34 0 1 C0 0.67 0 0.34 0 0 Z " fill="#CCE05D" transform="translate(139,279)"/>
<path d="M0 0 C0.99 0.33 1.98 0.66 3 1 C4.17755913 3.94389782 4.03348696 4.89953913 3 8 C1.68 8 0.36 8 -1 8 C-1.625 5.6875 -1.625 5.6875 -2 3 C-1.34 2.01 -0.68 1.02 0 0 Z " fill="#DAE396" transform="translate(72,85)"/>
<path d="M0 0 C0.66 0 1.32 0 2 0 C2.66666667 2.66666667 3.33333333 5.33333333 4 8 C3.01 8 2.02 8 1 8 C0.67 8.66 0.34 9.32 0 10 C-2 8 -2 8 -2.125 5.375 C-2.08375 4.59125 -2.0425 3.8075 -2 3 C-1.34 3 -0.68 3 0 3 C0 2.01 0 1.02 0 0 Z " fill="#A7C119" transform="translate(108,325)"/>
<path d="M0 0 C0.33 0.99 0.66 1.98 1 3 C0.34 3 -0.32 3 -1 3 C-1.33 6.63 -1.66 10.26 -2 14 C-2.66 14 -3.32 14 -4 14 C-4 10.04 -4 6.08 -4 2 C-2.68 2 -1.36 2 0 2 C0 1.34 0 0.68 0 0 Z " fill="#A9BE3A" transform="translate(167,85)"/>
<path d="M0 0 C0 2.31 0 4.62 0 7 C-0.33 6.34 -0.66 5.68 -1 5 C-2.98 5 -4.96 5 -7 5 C-7 3.68 -7 2.36 -7 1 C-1.125 0 -1.125 0 0 0 Z " fill="#AABF32" transform="translate(181,86)"/>
<path d="M0 0 C0 3.3 0 6.6 0 10 C-0.99 10 -1.98 10 -3 10 C-3.33 8.35 -3.66 6.7 -4 5 C-3.34 5 -2.68 5 -2 5 C-2 4.01 -2 3.02 -2 2 C-2.66 2 -3.32 2 -4 2 C-4 2.66 -4 3.32 -4 4 C-5.32 3.34 -6.64 2.68 -8 2 C-8 1.67 -8 1.34 -8 1 C-5.23735711 0.40267181 -2.83967231 0 0 0 Z " fill="#B9CC50" transform="translate(78,39)"/>
<path d="M0 0 C0.66 0 1.32 0 2 0 C2 1.98 2 3.96 2 6 C2.66 6.33 3.32 6.66 4 7 C3.34 7 2.68 7 2 7 C2 9.31 2 11.62 2 14 C1.34 14 0.68 14 0 14 C0 9.38 0 4.76 0 0 Z " fill="#F1FC9E" transform="translate(101,85)"/>
<path d="M0 0 C0.66 0 1.32 0 2 0 C2 1.65 2 3.3 2 5 C5.12197478 3.6910428 5.12197478 3.6910428 7 1 C7.66 1 8.32 1 9 1 C9.33 2.32 9.66 3.64 10 5 C6.7 5.33 3.4 5.66 0 6 C0 4.02 0 2.04 0 0 Z " fill="#D6E967" transform="translate(131,294)"/>
<path d="M0 0 C0.33 0.99 0.66 1.98 1 3 C3.50447516 4.21869929 3.50447516 4.21869929 6 5 C6 5.99 6 6.98 6 8 C3.03 7.505 3.03 7.505 0 7 C-1.04449911 3.86650268 -0.93423645 3.01031744 0 0 Z " fill="#B1C33E" transform="translate(145,89)"/>
<path d="M0 0 C2.3125 -0.25 2.3125 -0.25 5 0 C6.8125 2 6.8125 2 8 4 C6.35 3.67 4.7 3.34 3 3 C3.33 4.65 3.66 6.3 4 8 C1.10067643 5.60490662 0.49831724 3.68754757 0 0 Z " fill="#AABE38" transform="translate(131,321)"/>
<path d="M0 0 C0.66 0 1.32 0 2 0 C3.38938077 1.96147874 4.7260411 3.96166576 6 6 C4.35 6 2.7 6 1 6 C1 7.32 1 8.64 1 10 C0.01 9.67 -0.98 9.34 -2 9 C-1.34 9 -0.68 9 0 9 C0 6.03 0 3.06 0 0 Z " fill="#B8C756" transform="translate(130,89)"/>
<path d="M0 0 C0.33 0 0.66 0 1 0 C1 3.3 1 6.6 1 10 C-0.32 9.34 -1.64 8.68 -3 8 C-3.66 8 -4.32 8 -5 8 C-5 7.01 -5 6.02 -5 5 C-4.01 4.67 -3.02 4.34 -2 4 C-0.79117904 1.99983534 -0.79117904 1.99983534 0 0 Z " fill="#A8C12A" transform="translate(41,89)"/>
<path d="M0 0 C1.65 0 3.3 0 5 0 C4.01 0.33 3.02 0.66 2 1 C2 1.66 2 2.32 2 3 C2.99 3.33 3.98 3.66 5 4 C4.67 5.65 4.34 7.3 4 9 C2.68 8.67 1.36 8.34 0 8 C0.99 7.67 1.98 7.34 3 7 C2.505 6.5875 2.01 6.175 1.5 5.75 C0 4 0 4 0 0 Z " fill="#E8F68C" transform="translate(116,40)"/>
<path d="M0 0 C0.99 0 1.98 0 3 0 C4.4783226 2.95664519 4.06032783 5.74229737 4 9 C1.03 9 -1.94 9 -5 9 C-5 8.67 -5 8.34 -5 8 C-3.02 7.67 -1.04 7.34 1 7 C1.15149298 3.37114676 1.15149298 3.37114676 0 0 Z " fill="#ABC035" transform="translate(151,91)"/>
<path d="M0 0 C0.66 0 1.32 0 2 0 C2.33 0.66 2.66 1.32 3 2 C4.32 1.67 5.64 1.34 7 1 C6.34 3.97 5.68 6.94 5 10 C4.34 10 3.68 10 3 10 C2.690625 8.906875 2.38125 7.81375 2.0625 6.6875 C1.41662103 4.44592006 0.7376883 2.2130649 0 0 Z " fill="#E9F58F" transform="translate(100,39)"/>
<path d="M0 0 C1.23556641 0.01740234 1.23556641 0.01740234 2.49609375 0.03515625 C3.32238281 0.04417969 4.14867187 0.05320312 5 0.0625 C5.63808594 0.07410156 6.27617187 0.08570313 6.93359375 0.09765625 C6.93359375 0.75765625 6.93359375 1.41765625 6.93359375 2.09765625 C5.28359375 2.09765625 3.63359375 2.09765625 1.93359375 2.09765625 C1.93359375 3.41765625 1.93359375 4.73765625 1.93359375 6.09765625 C0.61359375 6.09765625 -0.70640625 6.09765625 -2.06640625 6.09765625 C-2.06640625 5.43765625 -2.06640625 4.77765625 -2.06640625 4.09765625 C-1.40640625 3.76765625 -0.74640625 3.43765625 -0.06640625 3.09765625 C-1.05640625 2.43765625 -2.04640625 1.77765625 -3.06640625 1.09765625 C-2.06640625 0.09765625 -2.06640625 0.09765625 0 0 Z " fill="#A4BD23" transform="translate(160.06640625,291.90234375)"/>
<path d="M0 0 C1.98 0.66 3.96 1.32 6 2 C6 2.66 6 3.32 6 4 C6.99 4.33 7.98 4.66 9 5 C9 6.65 9 8.3 9 10 C5.73991357 6.83047153 2.77762123 3.60062011 0 0 Z " fill="#ADC041" transform="translate(192,85)"/>
<path d="M0 0 C0.66 0 1.32 0 2 0 C2 2.31 2 4.62 2 7 C3.32 7 4.64 7 6 7 C6 7.66 6 8.32 6 9 C4.02 9 2.04 9 0 9 C0 6.03 0 3.06 0 0 Z " fill="#E4F483" transform="translate(153,40)"/>
<path d="M0 0 C0.66 0 1.32 0 2 0 C2 0.66 2 1.32 2 2 C3.65 1.34 5.3 0.68 7 0 C6.01 2.97 5.02 5.94 4 9 C3.34 9 2.68 9 2 9 C1.34 6.03 0.68 3.06 0 0 Z " fill="#E5F585" transform="translate(171,40)"/>
<path d="M0 0 C2.375 -0.125 2.375 -0.125 5 0 C7 2 7 2 7.1953125 4.3828125 C7.17210937 5.28773438 7.14890625 6.19265625 7.125 7.125 C7.10695312 8.03507812 7.08890625 8.94515625 7.0703125 9.8828125 C7.04710937 10.58148438 7.02390625 11.28015625 7 12 C6.01 12 5.02 12 4 12 C4.33 9.03 4.66 6.06 5 3 C3.35 2.67 1.7 2.34 0 2 C0 1.34 0 0.68 0 0 Z " fill="#ABC137" transform="translate(210,350)"/>
<path d="M0 0 C0.33 0 0.66 0 1 0 C1.66 2.97 2.32 5.94 3 9 C2.01 9.33 1.02 9.66 0 10 C0 9.34 0 8.68 0 8 C-0.99 8 -1.98 8 -3 8 C-3 7.34 -3 6.68 -3 6 C-2.01 6 -1.02 6 0 6 C0 5.34 0 4.68 0 4 C-0.99 3.67 -1.98 3.34 -3 3 C-2.01 3 -1.02 3 0 3 C0 2.01 0 1.02 0 0 Z " fill="#AFC43B" transform="translate(167,39)"/>
<path d="M0 0 C2.91517292 1.07401108 4.77810176 1.77810176 7 4 C5.02 4.66 3.04 5.32 1 6 C0.34 4.35 -0.32 2.7 -1 1 C-0.67 0.67 -0.34 0.34 0 0 Z " fill="#E6F1A0" transform="translate(114,313)"/>
<path d="M0 0 C2.64 0 5.28 0 8 0 C7.67 0.66 7.34 1.32 7 2 C5.68 2 4.36 2 3 2 C3 2.99 3 3.98 3 5 C2.01 5 1.02 5 0 5 C0 3.35 0 1.7 0 0 Z " fill="#EAF597" transform="translate(171,85)"/>
<path d="M0 0 C2.31 0.33 4.62 0.66 7 1 C7.1875 3.375 7.1875 3.375 7 6 C6.01 6.66 5.02 7.32 4 8 C4 6.68 4 5.36 4 4 C3.01 3.67 2.02 3.34 1 3 C0.67 2.01 0.34 1.02 0 0 Z " fill="#B1C344" transform="translate(101,38)"/>
<path d="M0 0 C1.98 0.99 1.98 0.99 4 2 C3.34 3.32 2.68 4.64 2 6 C2.66 6 3.32 6 4 6 C4 7.32 4 8.64 4 10 C3.01 9.67 2.02 9.34 1 9 C0.67 6.03 0.34 3.06 0 0 Z " fill="#A6C017" transform="translate(134,324)"/>
<path d="M0 0 C1.32 0 2.64 0 4 0 C3.67 1.32 3.34 2.64 3 4 C1.35 4.33 -0.3 4.66 -2 5 C-1.34 3.35 -0.68 1.7 0 0 Z " fill="#A5C30A" transform="translate(129,289)"/>
<path d="M0 0 C3.3 0 6.6 0 10 0 C9.67 1.32 9.34 2.64 9 4 C4.545 3.01 4.545 3.01 0 2 C0 1.34 0 0.68 0 0 Z " fill="#A9C123" transform="translate(76,98)"/>
<path d="M0 0 C1.98 1.65 3.96 3.3 6 5 C5.34 5.66 4.68 6.32 4 7 C2.68 7 1.36 7 0 7 C0 4.69 0 2.38 0 0 Z " fill="#AFBD4D" transform="translate(192,89)"/>
<path d="M0 0 C0.33 1.32 0.66 2.64 1 4 C-1.60582371 4.93065133 -2.64198224 5.14917407 -5.25 4.0625 C-5.8275 3.711875 -6.405 3.36125 -7 3 C-4.74624683 0.74624683 -3.20799182 0 0 0 Z " fill="#A6C30B" transform="translate(126,318)"/>
<path d="M0 0 C1.65 0.33 3.3 0.66 5 1 C4.01 1.33 3.02 1.66 2 2 C2 2.99 2 3.98 2 5 C2.66 5.33 3.32 5.66 4 6 C2.35 5.67 0.7 5.34 -1 5 C-0.67 3.35 -0.34 1.7 0 0 Z " fill="#CAE054" transform="translate(156,294)"/>
<path d="M0 0 C1.32 0 2.64 0 4 0 C4 1.98 4 3.96 4 6 C2.68 6 1.36 6 0 6 C0 4.02 0 2.04 0 0 Z " fill="#D4E673" transform="translate(116,294)"/>
<path d="M0 0 C2.475 0.495 2.475 0.495 5 1 C5.33 2.65 5.66 4.3 6 6 C3.03 5.505 3.03 5.505 0 5 C0 3.35 0 1.7 0 0 Z " fill="#AAC036" transform="translate(70,44)"/>
<path d="M0 0 C0.33 0.99 0.66 1.98 1 3 C1.99 3 2.98 3 4 3 C3.67 3.99 3.34 4.98 3 6 C0.69 5.67 -1.62 5.34 -4 5 C-4 4.34 -4 3.68 -4 3 C-3.01 2.67 -2.02 2.34 -1 2 C-0.67 1.34 -0.34 0.68 0 0 Z " fill="#AAC421" transform="translate(117,335)"/>
<path d="M0 0 C1.32 0 2.64 0 4 0 C4 0.66 4 1.32 4 2 C4.66 2 5.32 2 6 2 C4.25 6.875 4.25 6.875 2 8 C2 5.69 2 3.38 2 1 C1.34 0.67 0.68 0.34 0 0 Z " fill="#B2C54E" transform="translate(124,317)"/>
<path d="M0 0 C1.65 0.33 3.3 0.66 5 1 C4.67 1.99 4.34 2.98 4 4 C2.35 4.33 0.7 4.66 -1 5 C-0.67 3.35 -0.34 1.7 0 0 Z " fill="#ABC524" transform="translate(81,298)"/>
<path d="M0 0 C0.33 0.99 0.66 1.98 1 3 C1.66 3 2.32 3 3 3 C3 2.01 3 1.02 3 0 C3.66 0 4.32 0 5 0 C4.67 1.65 4.34 3.3 4 5 C2.35 4.67 0.7 4.34 -1 4 C-0.67 2.68 -0.34 1.36 0 0 Z " fill="#D5EA68" transform="translate(86,295)"/>
<path d="M0 0 C0.99 0.33 1.98 0.66 3 1 C3 2.65 3 4.3 3 6 C1.68 6.33 0.36 6.66 -1 7 C-1.33 5.35 -1.66 3.7 -2 2 C-1.01 2.33 -0.02 2.66 1 3 C0.67 2.01 0.34 1.02 0 0 Z " fill="#B4C84C" transform="translate(143,322)"/>
<path d="M0 0 C2.0625 0.4375 2.0625 0.4375 4 1 C3.01 1 2.02 1 1 1 C1.33 1.66 1.66 2.32 2 3 C2.99 3.33 3.98 3.66 5 4 C4.67 4.66 4.34 5.32 4 6 C2.68 5.67 1.36 5.34 0 5 C-0.5625 3.0625 -0.5625 3.0625 -1 1 C-0.67 0.67 -0.34 0.34 0 0 Z " fill="#D6E862" transform="translate(121,281)"/>
<path d="M0 0 C1.65 0.99 3.3 1.98 5 3 C4.01 3.33 3.02 3.66 2 4 C2 4.99 2 5.98 2 7 C0.68 6.67 -0.64 6.34 -2 6 C-1.34 6 -0.68 6 0 6 C0 4.02 0 2.04 0 0 Z " fill="#ABBE41" transform="translate(103,93)"/>
<path d="M0 0 C0.33 0 0.66 0 1 0 C1 2.97 1 5.94 1 9 C0.01 8.67 -0.98 8.34 -2 8 C-2.33 7.01 -2.66 6.02 -3 5 C-1.625 2.3125 -1.625 2.3125 0 0 Z " fill="#B2C34D" transform="translate(138,85)"/>
<path d="M0 0 C1.98 0.495 1.98 0.495 4 1 C3.67 2.32 3.34 3.64 3 5 C1.68 5 0.36 5 -1 5 C-0.67 3.35 -0.34 1.7 0 0 Z " fill="#C5D474" transform="translate(57,85)"/>
<path d="M0 0 C0.66 0 1.32 0 2 0 C2 0.66 2 1.32 2 2 C3.98 2 5.96 2 8 2 C7.67 3.32 7.34 4.64 7 6 C6.34 6 5.68 6 5 6 C5 5.01 5 4.02 5 3 C3.35 3 1.7 3 0 3 C0 2.01 0 1.02 0 0 Z " fill="#AABE39" transform="translate(202,359)"/>
<path d="M0 0 C0.99 0.99 1.98 1.98 3 3 C0.36 3.66 -2.28 4.32 -5 5 C-4 2 -4 2 -1.9375 0.8125 C-1.298125 0.544375 -0.65875 0.27625 0 0 Z " fill="#F6FCC0" transform="translate(111,317)"/>
<path d="M0 0 C2.64 0 5.28 0 8 0 C8 0.99 8 1.98 8 3 C6.68 3.33 5.36 3.66 4 4 C4 3.34 4 2.68 4 2 C2.35 2 0.7 2 -1 2 C-0.67 1.34 -0.34 0.68 0 0 Z " fill="#A8C127" transform="translate(111,299)"/>
<path d="M0 0 C0.99 0 1.98 0 3 0 C3.33 1.32 3.66 2.64 4 4 C2.02253397 4.73080266 0.01927511 5.39421747 -2 6 C-2.66 5.67 -3.32 5.34 -4 5 C-2.35 4.67 -0.7 4.34 1 4 C0.67 2.68 0.34 1.36 0 0 Z " fill="#B4C749" transform="translate(140,295)"/>
<path d="M0 0 C0.33 1.98 0.66 3.96 1 6 C-1 5.33333333 -3 4.66666667 -5 4 C-5 3.01 -5 2.02 -5 1 C-2 0 -2 0 0 0 Z " fill="#AFC13D" transform="translate(127,281)"/>
<path d="M0 0 C1.65 0 3.3 0 5 0 C5.33 1.32 5.66 2.64 6 4 C4.02 4 2.04 4 0 4 C0 2.68 0 1.36 0 0 Z " fill="#AFC14D" transform="translate(118,87)"/>
<path d="M0 0 C0.66 0 1.32 0 2 0 C4 2 4 2 4.125 4.625 C4.08375 5.40875 4.0425 6.1925 4 7 C3.01 6.67 2.02 6.34 1 6 C1 5.01 1 4.02 1 3 C0.34 3 -0.32 3 -1 3 C-0.67 2.01 -0.34 1.02 0 0 Z " fill="#A8C11C" transform="translate(120,36)"/>
<path d="M0 0 C0.66 0.33 1.32 0.66 2 1 C1.6875 2.9375 1.6875 2.9375 1 5 C0.01 5.33 -0.98 5.66 -2 6 C-2.66 6.66 -3.32 7.32 -4 8 C-3.40072174 4.64404172 -2.15377564 2.62198774 0 0 Z " fill="#F2FBA8" transform="translate(130,320)"/>
<path d="M0 0 C1.32 0 2.64 0 4 0 C4 0.66 4 1.32 4 2 C3.01 2 2.02 2 1 2 C1 2.99 1 3.98 1 5 C1.66 5.33 2.32 5.66 3 6 C1.68 5.67 0.36 5.34 -1 5 C-0.67 3.35 -0.34 1.7 0 0 Z " fill="#D0E55B" transform="translate(126,294)"/>
<path d="M0 0 C1.98 0.495 1.98 0.495 4 1 C3.67 2.32 3.34 3.64 3 5 C1.68 4.67 0.36 4.34 -1 4 C-0.67 2.68 -0.34 1.36 0 0 Z " fill="#D6EA6D" transform="translate(110,295)"/>
<path d="M0 0 C2.62187494 1.04874998 3.79371361 1.64931313 5.25 4.125 C5.4975 4.74375 5.745 5.3625 6 6 C5.34 6 4.68 6 4 6 C4 5.34 4 4.68 4 4 C2.68 4.33 1.36 4.66 0 5 C0 3.35 0 1.7 0 0 Z " fill="#AEC046" transform="translate(56,93)"/>
<path d="M0 0 C2.64 0 5.28 0 8 0 C8 0.66 8 1.32 8 2 C5.36 2.33 2.72 2.66 0 3 C0 2.01 0 1.02 0 0 Z " fill="#EBF98D" transform="translate(116,85)"/>
<path d="M0 0 C0.66 0 1.32 0 2 0 C2 4 2 4 0 6.25 C-0.99 7.11625 -0.99 7.11625 -2 8 C-2.66 7.67 -3.32 7.34 -4 7 C-2.68 4.69 -1.36 2.38 0 0 Z " fill="#A7C40E" transform="translate(128,80)"/>
<path d="M0 0 C0.66 0 1.32 0 2 0 C2.33 0.99 2.66 1.98 3 3 C2.67 3.66 2.34 4.32 2 5 C0.68 5 -0.64 5 -2 5 C-1.125 1.125 -1.125 1.125 0 0 Z " fill="#E2E99D" transform="translate(84,40)"/>
<path d="M0 0 C1.98 0 3.96 0 6 0 C5.67 1.32 5.34 2.64 5 4 C3.68 4 2.36 4 1 4 C0.67 2.68 0.34 1.36 0 0 Z " fill="#B1C147" transform="translate(126,39)"/>
<path d="M0 0 C0.99 0 1.98 0 3 0 C3 0.66 3 1.32 3 2 C2.34 2 1.68 2 1 2 C1 4.31 1 6.62 1 9 C-0.61949011 6.42786866 -1.04408751 5.32330841 -0.625 2.25 C-0.41875 1.5075 -0.2125 0.765 0 0 Z " fill="#A5BD28" transform="translate(93,83)"/>
</svg>
