<?xml version="1.0" encoding="UTF-8"?>
<svg version="1.1" xmlns="http://www.w3.org/2000/svg" width="571" height="360">
<path d="M0 0 C6.44123794 4.48123658 12.20807278 9.64557278 17.75 15.1875 C20.65400075 15.73633503 23.5108848 16.17913702 26.4375 16.5625 C28.27371085 16.82360569 30.10963946 17.08670224 31.9453125 17.3515625 C32.9034082 17.48852539 33.86150391 17.62548828 34.84863281 17.76660156 C81.32678852 24.50914115 127.88316149 38.61381337 163.75 70.1875 C164.74515625 71.04988281 165.7403125 71.91226563 166.765625 72.80078125 C173.48514293 78.71784261 179.33896466 85.03994446 184.75 92.1875 C185.53890625 93.19941406 186.3278125 94.21132812 187.140625 95.25390625 C196.04303494 106.95954589 203.75038921 120.30305807 208.125 134.375 C210.67424566 141.55923778 216.0792456 144.899978 222.10302734 149.01123047 C228.14243134 153.32457889 233.64637455 158.81526268 238.75 164.1875 C239.65492188 165.10015625 239.65492188 165.10015625 240.578125 166.03125 C250.33393748 176.30836544 255.49822824 187.07684395 255.15625 201.21875 C254.28328543 209.74694233 249.92316759 217.07915521 243.59765625 222.79296875 C235.12850273 229.18512056 225.19853811 231.25783805 214.75 230.1875 C206.96386624 228.70852585 199.35861986 226.37547099 191.75 224.1875 C191.09515625 224.91453125 190.4403125 225.6415625 189.765625 226.390625 C186.78731411 229.68136545 183.77515667 232.9398225 180.75 236.1875 C180.27981445 236.69458496 179.80962891 237.20166992 179.32519531 237.72412109 C169.99662975 247.69637748 159.39679679 257.05877658 147.38671875 263.66796875 C137.13627754 269.31696463 133.15102765 274.4337651 128.6640625 285.16357422 C116.52343298 312.04547024 91.21072911 333.02072505 64.2109375 343.5703125 C47.77951744 348.78027496 29.23660083 348.17466502 13.703125 340.7265625 C5.84770374 336.63259957 0.68553403 332.52029341 -4.25 325.1875 C-5.09385254 325.45014648 -5.93770508 325.71279297 -6.80712891 325.98339844 C-15.36592002 328.55138949 -23.75111778 330.2543157 -32.625 331.4375 C-34.06466427 331.63604273 -35.50427788 331.83495298 -36.94384766 332.03417969 C-52.76620877 334.19894752 -68.61622977 336.17031742 -84.46082306 338.16496277 C-85.89924142 338.34610441 -87.33763173 338.52746901 -88.77599335 338.70906067 C-93.58700602 339.31643424 -98.39876467 339.91751019 -103.2109375 340.515625 C-104.43280762 340.6695874 -105.65467773 340.8235498 -106.91357422 340.98217773 C-118.22534033 342.37743074 -129.47819791 343.3353374 -140.87890625 343.390625 C-141.83409653 343.39632507 -142.7892868 343.40202515 -143.77342224 343.40789795 C-145.77740403 343.41725276 -147.78140054 343.42384343 -149.78540039 343.42773438 C-152.7823503 343.43740274 -155.77860169 343.46850407 -158.77539062 343.5 C-179.22255283 343.61256844 -200.76813354 341.83573957 -219.1875 332.1875 C-223.01997127 330.3433033 -225.03953601 329.93244546 -229.125 331.1875 C-230.83482629 331.85032823 -232.54305961 332.51727488 -234.25 333.1875 C-244.19786049 336.03871759 -255.48294956 338.68256613 -265.375 334.29296875 C-273.13227496 329.71940872 -277.58410506 324.01859532 -280.5 315.5625 C-283.03257723 303.69817423 -281.09765895 290.81086843 -276.5 279.6875 C-274.57431436 274.29558022 -276.15779359 270.190508 -277.96411133 264.89160156 C-283.29527184 249.12853961 -284.52501766 234.21369206 -284.5625 217.6875 C-284.56617584 216.89960083 -284.56985168 216.11170166 -284.57363892 215.29992676 C-284.59439463 206.76810891 -284.50138979 198.48684188 -282.25 190.1875 C-283.36375 190.27 -284.4775 190.3525 -285.625 190.4375 C-292.34186383 190.42559067 -297.96586122 187.68097536 -303.5 184.0625 C-313.79779978 173.29661841 -316.9778919 159.89639135 -316.75 145.375 C-316.73296021 143.52841797 -316.73296021 143.52841797 -316.71557617 141.64453125 C-316.52192816 132.57005353 -315.5300612 124.70922764 -312.25 116.1875 C-311.87617188 115.15238281 -311.50234375 114.11726563 -311.1171875 113.05078125 C-304.31307016 95.45470296 -292.23672579 78.22072266 -274.66015625 70.15234375 C-265.25678728 66.38794807 -257.33632783 66.18865029 -247.9375 69.84375 C-243.7232863 71.95085685 -240.53255283 74.85075408 -237.25 78.1875 C-236.6828125 78.75339844 -236.115625 79.31929688 -235.53125 79.90234375 C-235.1084375 80.32644531 -234.685625 80.75054687 -234.25 81.1875 C-233.75113281 80.54425781 -233.25226563 79.90101562 -232.73828125 79.23828125 C-222.66191526 66.55689425 -211.33977069 55.7167389 -198.25 46.1875 C-197.66524902 45.75840332 -197.08049805 45.32930664 -196.47802734 44.88720703 C-180.62707863 33.39603065 -163.23234107 25.84003458 -144.25 21.1875 C-143.52554688 21.00960937 -142.80109375 20.83171875 -142.0546875 20.6484375 C-127.95438556 17.37050753 -113.64060562 17.8750787 -99.25 18.1875 C-98.98606445 17.19496216 -98.98606445 17.19496216 -98.71679688 16.18237305 C-95.6468719 5.22221987 -89.96845025 -1.53551823 -80.1328125 -7.34375 C-54.80900663 -20.24585164 -23.28342234 -14.93821612 0 0 Z " fill="#FDFDFD" transform="translate(316.25,13.8125)"/>
<path d="M0 0 C6.44123794 4.48123658 12.20807278 9.64557278 17.75 15.1875 C20.65400075 15.73633503 23.5108848 16.17913702 26.4375 16.5625 C28.27371085 16.82360569 30.10963946 17.08670224 31.9453125 17.3515625 C32.9034082 17.48852539 33.86150391 17.62548828 34.84863281 17.76660156 C81.32678852 24.50914115 127.88316149 38.61381337 163.75 70.1875 C164.74515625 71.04988281 165.7403125 71.91226563 166.765625 72.80078125 C173.48514293 78.71784261 179.33896466 85.03994446 184.75 92.1875 C185.53890625 93.19941406 186.3278125 94.21132812 187.140625 95.25390625 C196.04303494 106.95954589 203.75038921 120.30305807 208.125 134.375 C210.67424566 141.55923778 216.0792456 144.899978 222.10302734 149.01123047 C228.14243134 153.32457889 233.64637455 158.81526268 238.75 164.1875 C239.65492188 165.10015625 239.65492188 165.10015625 240.578125 166.03125 C250.33393748 176.30836544 255.49822824 187.07684395 255.15625 201.21875 C254.28328543 209.74694233 249.92316759 217.07915521 243.59765625 222.79296875 C235.12850273 229.18512056 225.19853811 231.25783805 214.75 230.1875 C206.96386624 228.70852585 199.35861986 226.37547099 191.75 224.1875 C191.09515625 224.91453125 190.4403125 225.6415625 189.765625 226.390625 C186.78731411 229.68136545 183.77515667 232.9398225 180.75 236.1875 C180.27981445 236.69458496 179.80962891 237.20166992 179.32519531 237.72412109 C169.99662975 247.69637748 159.39679679 257.05877658 147.38671875 263.66796875 C137.13627754 269.31696463 133.15102765 274.4337651 128.6640625 285.16357422 C116.52343298 312.04547024 91.21072911 333.02072505 64.2109375 343.5703125 C47.77951744 348.78027496 29.23660083 348.17466502 13.703125 340.7265625 C5.84770374 336.63259957 0.68553403 332.52029341 -4.25 325.1875 C-5.09385254 325.45014648 -5.93770508 325.71279297 -6.80712891 325.98339844 C-15.36592002 328.55138949 -23.75111778 330.2543157 -32.625 331.4375 C-34.06466427 331.63604273 -35.50427788 331.83495298 -36.94384766 332.03417969 C-52.76620877 334.19894752 -68.61622977 336.17031742 -84.46082306 338.16496277 C-85.89924142 338.34610441 -87.33763173 338.52746901 -88.77599335 338.70906067 C-93.58700602 339.31643424 -98.39876467 339.91751019 -103.2109375 340.515625 C-104.43280762 340.6695874 -105.65467773 340.8235498 -106.91357422 340.98217773 C-118.22534033 342.37743074 -129.47819791 343.3353374 -140.87890625 343.390625 C-141.83409653 343.39632507 -142.7892868 343.40202515 -143.77342224 343.40789795 C-145.77740403 343.41725276 -147.78140054 343.42384343 -149.78540039 343.42773438 C-152.7823503 343.43740274 -155.77860169 343.46850407 -158.77539062 343.5 C-179.22255283 343.61256844 -200.76813354 341.83573957 -219.1875 332.1875 C-223.01997127 330.3433033 -225.03953601 329.93244546 -229.125 331.1875 C-230.83482629 331.85032823 -232.54305961 332.51727488 -234.25 333.1875 C-244.19786049 336.03871759 -255.48294956 338.68256613 -265.375 334.29296875 C-273.13227496 329.71940872 -277.58410506 324.01859532 -280.5 315.5625 C-283.03257723 303.69817423 -281.09765895 290.81086843 -276.5 279.6875 C-274.57431436 274.29558022 -276.15779359 270.190508 -277.96411133 264.89160156 C-283.29527184 249.12853961 -284.52501766 234.21369206 -284.5625 217.6875 C-284.56617584 216.89960083 -284.56985168 216.11170166 -284.57363892 215.29992676 C-284.59439463 206.76810891 -284.50138979 198.48684188 -282.25 190.1875 C-283.36375 190.27 -284.4775 190.3525 -285.625 190.4375 C-292.34186383 190.42559067 -297.96586122 187.68097536 -303.5 184.0625 C-313.79779978 173.29661841 -316.9778919 159.89639135 -316.75 145.375 C-316.73296021 143.52841797 -316.73296021 143.52841797 -316.71557617 141.64453125 C-316.52192816 132.57005353 -315.5300612 124.70922764 -312.25 116.1875 C-311.87617188 115.15238281 -311.50234375 114.11726563 -311.1171875 113.05078125 C-304.31307016 95.45470296 -292.23672579 78.22072266 -274.66015625 70.15234375 C-265.25678728 66.38794807 -257.33632783 66.18865029 -247.9375 69.84375 C-243.7232863 71.95085685 -240.53255283 74.85075408 -237.25 78.1875 C-236.6828125 78.75339844 -236.115625 79.31929688 -235.53125 79.90234375 C-235.1084375 80.32644531 -234.685625 80.75054687 -234.25 81.1875 C-233.75113281 80.54425781 -233.25226563 79.90101562 -232.73828125 79.23828125 C-222.66191526 66.55689425 -211.33977069 55.7167389 -198.25 46.1875 C-197.66524902 45.75840332 -197.08049805 45.32930664 -196.47802734 44.88720703 C-180.62707863 33.39603065 -163.23234107 25.84003458 -144.25 21.1875 C-143.52554688 21.00960937 -142.80109375 20.83171875 -142.0546875 20.6484375 C-127.95438556 17.37050753 -113.64060562 17.8750787 -99.25 18.1875 C-98.98606445 17.19496216 -98.98606445 17.19496216 -98.71679688 16.18237305 C-95.6468719 5.22221987 -89.96845025 -1.53551823 -80.1328125 -7.34375 C-54.80900663 -20.24585164 -23.28342234 -14.93821612 0 0 Z M-212.25 67.1875 C-212.83313965 67.7448584 -213.4162793 68.3022168 -214.01708984 68.87646484 C-222.26087903 76.76386217 -229.66700657 84.86408723 -236.25 94.1875 C-236.65138184 94.74985352 -237.05276367 95.31220703 -237.46630859 95.89160156 C-253.58062898 118.64948929 -265.47479251 144.11260386 -272.25 171.1875 C-272.43256348 171.90421875 -272.61512695 172.6209375 -272.80322266 173.359375 C-282.79320078 213.21477158 -280.31070818 253.36517743 -259.25 289.1875 C-245.93230083 310.68070647 -224.78685341 325.89530992 -200.359375 332.2421875 C-198.99059551 332.56165982 -197.6207133 332.87642945 -196.25 333.1875 C-195.46947266 333.37086914 -194.68894531 333.55423828 -193.88476562 333.74316406 C-159.38456806 341.53140576 -122.10742256 337.30979764 -87.54907227 331.88208008 C-79.93938183 330.69606077 -72.32081712 329.66402857 -64.6796875 328.703125 C-63.64757645 328.57323685 -62.61546539 328.44334869 -61.55207825 328.30952454 C-56.36757336 327.65934864 -51.18217325 327.0170831 -45.99584961 326.3815918 C-24.76318983 323.91698242 -24.76318983 323.91698242 -4.25 318.1875 C-4.23582031 317.60484375 -4.22164063 317.0221875 -4.20703125 316.421875 C-2.58090492 288.47008193 25.08706512 264.13099004 44.48046875 246.62548828 C46.65388167 244.75940508 48.88839012 242.9824145 51.1484375 241.22265625 C54.26660316 238.7833705 57.25036932 236.20735922 60.25 233.625 C65.20591446 229.37327714 70.30481184 225.52583643 75.703125 221.84375 C78.02094383 220.27229242 78.02094383 220.27229242 78.75 217.1875 C78.98164314 212.70801313 78.97846986 208.22569971 78.99023438 203.7409668 C78.99976987 201.55280975 79.0307153 199.36566399 79.0625 197.17773438 C79.13746956 187.1644799 77.94348641 177.96452394 75.75 168.1875 C75.33041016 166.29499512 75.33041016 166.29499512 74.90234375 164.36425781 C68.12880036 135.04911088 50.40016646 106.84857256 28.75 86.1875 C23.75 81.1875 23.75 81.1875 22.00390625 79.30078125 C4.81423809 61.20126298 -18.4549754 47.8767144 -41.25 38.1875 C-41.98299316 37.87087402 -42.71598633 37.55424805 -43.47119141 37.22802734 C-102.1684685 12.33206154 -166.6516784 22.86950565 -212.25 67.1875 Z " fill="#040404" transform="translate(316.25,13.8125)"/>
<path d="M0 0 C3.44130336 1.26158601 6.23911756 2.69956583 9.1875 4.87109375 C9.9619043 5.43957031 10.73630859 6.00804688 11.53417969 6.59375 C12.34790039 7.2021875 13.16162109 7.810625 14 8.4375 C14.84723633 9.06785156 15.69447266 9.69820312 16.56738281 10.34765625 C32.24333191 22.10313079 49.0594753 35.33817356 61 51 C61 51.66 61 52.32 61 53 C61.66 53 62.32 53 63 53 C65.58887789 55.78010182 67.74887652 58.94430832 70 62 C70.75796875 63.01707031 71.5159375 64.03414063 72.296875 65.08203125 C79.12387499 74.36063257 85.19229782 84.05654418 91 94 C91.54503174 94.9288501 91.54503174 94.9288501 92.10107422 95.87646484 C104.94026799 118.03313958 113.79925547 143.15924759 119.5 168.0625 C119.66032715 168.75778809 119.8206543 169.45307617 119.98583984 170.16943359 C121.1336755 175.6046554 122.31420821 181.41152912 119.71484375 186.53125 C114.87848606 191.88844622 114.87848606 191.88844622 110.0625 192.5 C109.051875 192.335 108.04125 192.17 107 192 C106.89945313 192.61101562 106.79890625 193.22203125 106.6953125 193.8515625 C101.97608371 216.80123673 88.38947699 238.55371374 72 255 C70.74896484 256.26263672 70.74896484 256.26263672 69.47265625 257.55078125 C55.39508284 271.49491795 37.2520212 283.31233157 17 285 C16.03964844 285.08765625 15.07929688 285.1753125 14.08984375 285.265625 C2.1253429 285.87003147 -12.29397866 282.76607377 -21.51953125 274.6171875 C-25.59445527 270.16595124 -28.25887661 266.36770503 -28.5625 260.1875 C-27.84941899 248.47514435 -21.39535184 239.3831417 -15 230 C-14.34 229.01 -13.68 228.02 -13 227 C-12.34 227 -11.68 227 -11 227 C-10.74992187 226.4328125 -10.49984375 225.865625 -10.2421875 225.28125 C-3.82196982 213.49066156 9.83327922 202.59251885 20 194 C20.97646484 193.13181641 20.97646484 193.13181641 21.97265625 192.24609375 C22.60042969 191.69050781 23.22820312 191.13492188 23.875 190.5625 C24.70644531 189.82193359 24.70644531 189.82193359 25.5546875 189.06640625 C27 188 27 188 29 188 C29 187.34 29 186.68 29 186 C30.40625 184.6953125 30.40625 184.6953125 32.5 183.125 C33.30953125 182.51269531 34.1190625 181.90039062 34.953125 181.26953125 C35.95859375 180.52058594 36.9640625 179.77164063 38 179 C39.32844993 178.00433964 40.65655098 177.00821369 41.984375 176.01171875 C44.09645651 174.42668788 46.20933053 172.84282994 48.32617188 171.26416016 C51.93556806 168.56943779 55.50249059 165.84003186 59 163 C58.67 162.01 58.34 161.02 58 160 C57.01 159.67 56.02 159.34 55 159 C54.9906543 158.24195068 54.98130859 157.48390137 54.97167969 156.70288086 C54.5182627 127.2241091 50.65106204 100.42096628 37 74 C36.49944092 73.02981934 36.49944092 73.02981934 35.98876953 72.04003906 C30.55543239 61.65970545 24.17121421 52.25073077 17 43 C16.24074219 42.01515625 15.48148437 41.0303125 14.69921875 40.015625 C11.34625672 35.74707071 7.94395542 31.7417013 4 28 C2.80979808 26.81520809 1.62248678 25.62750791 0.4375 24.4375 C-0.12066406 23.87933594 -0.67882812 23.32117188 -1.25390625 22.74609375 C-3.16927083 20.83072917 -5.08463542 18.91536458 -7 17 C-6.36771484 15.66195312 -6.36771484 15.66195312 -5.72265625 14.296875 C-4.90087891 12.54117188 -4.90087891 12.54117188 -4.0625 10.75 C-3.51722656 9.58984375 -2.97195313 8.4296875 -2.41015625 7.234375 C-1.33551734 4.76955223 -0.51219919 2.61934773 0 0 Z " fill="#39393B" transform="translate(346,69)"/>
<path d="M0 0 C7.59439662 -0.28961682 14.55594482 0.8007427 22 2.25 C23.80065918 2.59442139 23.80065918 2.59442139 25.63769531 2.94580078 C47.33838787 7.14866708 69.13824275 12.044479 89 22 C90.31765738 22.5944623 91.63816883 23.18262462 92.9609375 23.765625 C112.82220351 32.60021967 129.24344942 45.18347091 145 60 C145.99 60.90878906 145.99 60.90878906 147 61.8359375 C164.76498437 78.69622359 183.59817692 110.23327143 184.29296875 135.56835938 C184.55781848 164.30455555 171.06563354 188.12326602 151.53125 208.42578125 C150.6959375 209.27527344 149.860625 210.12476563 149 211 C148.4328125 211.61230469 147.865625 212.22460938 147.28125 212.85546875 C146 214 146 214 144 214 C144 214.66 144 215.32 144 216 C142.5390625 217.5078125 142.5390625 217.5078125 140.625 219.125 C139.99851562 219.66382813 139.37203125 220.20265625 138.7265625 220.7578125 C137 222 137 222 135 222 C134.87995605 221.35264893 134.75991211 220.70529785 134.63623047 220.03833008 C131.8356551 205.09885444 128.53623843 190.50880629 124 176 C123.59394531 174.68539795 123.59394531 174.68539795 123.1796875 173.34423828 C113.19931559 141.29861655 97.61607958 110.78889712 76 85 C75.50951172 84.40799805 75.01902344 83.81599609 74.51367188 83.20605469 C62.54976346 68.82033339 49.7047594 55.44380892 34.67041016 44.25585938 C33.00306357 43.00230328 31.36429675 41.71873517 29.73046875 40.421875 C28.6539674 39.57250895 27.57714686 38.72354728 26.5 37.875 C25.97792969 37.46113037 25.45585937 37.04726074 24.91796875 36.62084961 C22.0980603 34.43723484 19.27780151 32.54115873 16.14453125 30.83203125 C6.57590254 25.54334277 6.57590254 25.54334277 4.81640625 20.828125 C4.375 17.4375 4.375 17.4375 4.21875 14.09765625 C3.90504167 9.65532218 2.1398238 6.85168284 0 3 C0 2.01 0 1.02 0 0 Z " fill="#FDFDFD" transform="translate(340,38)"/>
<path d="M0 0 C0.87148682 0.17039795 1.74297363 0.3407959 2.64086914 0.51635742 C20.84758423 4.24889417 38.61951408 16.87414908 49 32 C58.35385939 46.56250499 62.54180634 63.87591968 58.92407227 80.96459961 C55.19943278 96.54529175 47.0074836 109.9515893 33.5 118.9375 C28.54221541 121.86455361 23.46285818 124.18763667 18 126 C16.44345703 126.53367187 16.44345703 126.53367187 14.85546875 127.078125 C-1.13364832 130.90125735 -18.10877614 128.15604975 -32.375 120.25 C-50.38189582 108.40653832 -61.54600715 90.22251092 -68 70 C-68.26167969 69.30519531 -68.52335938 68.61039062 -68.79296875 67.89453125 C-74.252713 53.12273589 -77.57730178 33.04547432 -71.90234375 17.9296875 C-70.50921359 14.95043946 -69.09820513 12.55187111 -67 10 C-66.34064453 9.13761719 -66.34064453 9.13761719 -65.66796875 8.2578125 C-51.36029356 -7.35665269 -18.42191707 -3.95325687 0 0 Z " fill="#39393B" transform="translate(303,146)"/>
<path d="M0 0 C13.10601162 10.28859646 17.96457034 28.70250714 19.97265625 44.59765625 C20.2649855 49.51777709 20.30749663 54.41974099 20.28515625 59.34765625 C20.28233643 60.01162415 20.2795166 60.67559204 20.27661133 61.35968018 C20.14510969 81.94526925 15.80747966 100.43619453 0.97265625 115.59765625 C-7.70864109 123.54730454 -16.10859591 128.51934232 -27.62109375 131.01953125 C-29.96487489 131.36106984 -29.96487489 131.36106984 -31.02734375 132.59765625 C-49.38711365 133.42693157 -64.455878 130.64949948 -79.00390625 118.53515625 C-88.42149961 109.5175379 -93.78170384 99.09775591 -97.02734375 86.59765625 C-97.28753296 85.66747681 -97.28753296 85.66747681 -97.55297852 84.71850586 C-101.31459112 67.90063211 -96.66358279 50.9570467 -88.02734375 36.59765625 C-73.68562379 14.53079292 -50.09373319 0.96043546 -24.71484375 -4.71484375 C-14.84012497 -6.40157017 -8.26518232 -5.71714924 0 0 Z " fill="#39393B" transform="translate(155.02734375,172.40234375)"/>
<path d="M0 0 C4.28770451 3.88424892 3.64096788 8.73840937 3.97265625 14.2421875 C4.34474871 23.70540383 3.24814928 29.46015703 -2.8828125 36.91796875 C-3.86568315 37.93480958 -4.86011138 38.94119732 -5.8828125 39.91796875 C-10.80524022 38.20198299 -15.05750571 35.51721149 -19.5078125 32.85546875 C-28.33447857 27.65658822 -37.37051359 23.11421117 -46.70507812 18.90283203 C-48.16763038 18.24140425 -49.62467837 17.5676799 -51.07617188 16.88232422 C-56.63441113 14.3024115 -62.2155633 12.49012268 -68.1328125 10.91796875 C-69.07141113 10.66450684 -70.01000977 10.41104492 -70.97705078 10.14990234 C-80.84730757 7.55194677 -90.83211878 5.66502185 -100.8828125 3.91796875 C-99.89358033 -4.17993183 -95.16896855 -9.66902298 -88.9140625 -14.703125 C-60.52959586 -33.971811 -23.66449636 -19.47460678 0 0 Z " fill="#39393B" transform="translate(324.8828125,29.08203125)"/>
<path d="M0 0 C4.56144572 2.76188802 7.92346025 6.72894037 10.8515625 11.12109375 C10.61070588 15.2067357 7.82049713 18.26707336 5.5390625 21.49609375 C-7.43676311 40.5056427 -17.11232365 61.23649071 -24.1484375 83.12109375 C-30.56122814 85.01204483 -35.46723026 82.05235493 -41.1484375 79.12109375 C-48.5596854 74.27108593 -55.51806238 65.64660369 -58.1484375 57.12109375 C-59.22154131 41.75206455 -49.46478157 25.62128119 -40.04296875 14.2421875 C-38.14066038 12.11238658 -36.25812164 10.0473271 -34.1484375 8.12109375 C-33.4884375 8.12109375 -32.8284375 8.12109375 -32.1484375 8.12109375 C-32.1484375 7.46109375 -32.1484375 6.80109375 -32.1484375 6.12109375 C-29.94106891 4.88006208 -27.72990117 3.64815153 -25.5078125 2.43359375 C-23.73200606 1.44572792 -21.9924298 0.39230629 -20.2734375 -0.69140625 C-13.78904208 -3.15547651 -6.36876636 -2.73883162 0 0 Z " fill="#39393B" transform="translate(66.1484375,89.87890625)"/>
<path d="M0 0 C-0.474375 1.11375 -0.94875 2.2275 -1.4375 3.375 C-3.26620721 8.1882954 -3.65737987 12.90023112 -4 18 C-13.43003511 20.92137351 -22.64819707 22.97988965 -32.4375 24.375 C-33.83019723 24.57957735 -35.2228554 24.78442068 -36.61547852 24.98950195 C-61.01296708 28.53972957 -85.50364251 31.70829123 -110.01829529 34.33329773 C-113.47535507 34.70571426 -116.92313367 35.11544134 -120.36767578 35.58813477 C-145.11592764 38.95621286 -171.68386003 38.76071722 -196 33 C-196.78165527 32.82339844 -197.56331055 32.64679688 -198.36865234 32.46484375 C-210.63402509 29.61304557 -225.45497474 24.68729084 -234 15 C-231.47878568 15.62349358 -228.95803069 16.24875361 -226.4375 16.875 C-225.73302734 17.04902344 -225.02855469 17.22304688 -224.30273438 17.40234375 C-223.25375977 17.66337891 -223.25375977 17.66337891 -222.18359375 17.9296875 C-221.54993896 18.08679199 -220.91628418 18.24389648 -220.26342773 18.40576172 C-218.44930419 18.88204008 -216.65014675 19.41517006 -214.85742188 19.96655273 C-199.46140136 24.09132203 -183.39926311 24.46405716 -167.55883789 24.33618164 C-164.43544711 24.31248442 -161.31291208 24.31566935 -158.18945312 24.32226562 C-140.18814773 24.29708144 -122.51380932 22.77848873 -104.75 19.89453125 C-100.44428953 19.21043923 -96.13229511 18.60021748 -91.8125 18.01171875 C-64.25852393 14.1769661 -36.79635741 8.61879941 -10.13793945 0.58813477 C-6.32850024 -0.53415805 -3.80157529 -1.19944439 0 0 Z " fill="#919396" transform="translate(316,314)"/>
<path d="M0 0 C0.87148682 0.17039795 1.74297363 0.3407959 2.64086914 0.51635742 C20.84758423 4.24889417 38.61951408 16.87414908 49 32 C58.35385939 46.56250499 62.54180634 63.87591968 58.92407227 80.96459961 C55.19943278 96.54529175 47.0074836 109.9515893 33.5 118.9375 C28.54221541 121.86455361 23.46285818 124.18763667 18 126 C16.44345703 126.53367187 16.44345703 126.53367187 14.85546875 127.078125 C-1.13364832 130.90125735 -18.10877614 128.15604975 -32.375 120.25 C-50.38189582 108.40653832 -61.54600715 90.22251092 -68 70 C-68.26167969 69.30519531 -68.52335938 68.61039062 -68.79296875 67.89453125 C-74.252713 53.12273589 -77.57730178 33.04547432 -71.90234375 17.9296875 C-70.50921359 14.95043946 -69.09820513 12.55187111 -67 10 C-66.34064453 9.13761719 -66.34064453 9.13761719 -65.66796875 8.2578125 C-51.36029356 -7.35665269 -18.42191707 -3.95325687 0 0 Z M-63 14 C-70.88236576 26.03898307 -68.98321025 42.85961462 -66.16796875 56.40234375 C-60.86088789 78.81925765 -49.55109759 102.02518573 -29.78515625 114.828125 C-16.19250478 122.97738226 0.6558531 124.45801855 16 120.9375 C30.25685588 116.21519758 41.60049077 106.36383996 48.8125 93.3125 C56.0570631 77.77095417 54.98809705 61.8619027 50 46 C48.67188227 42.68206886 47.0855609 39.89537975 45 37 C44.4121875 36.18273437 43.824375 35.36546875 43.21875 34.5234375 C30.43122863 17.72712967 12.40984874 7.66935574 -8.36328125 4.53515625 C-24.60857612 2.43754 -51.02346074 1.16799365 -63 14 Z " fill="#080808" transform="translate(303,146)"/>
<path d="M0 0 C13.10601162 10.28859646 17.96457034 28.70250714 19.97265625 44.59765625 C20.2649855 49.51777709 20.30749663 54.41974099 20.28515625 59.34765625 C20.28233643 60.01162415 20.2795166 60.67559204 20.27661133 61.35968018 C20.14510969 81.94526925 15.80747966 100.43619453 0.97265625 115.59765625 C-7.70864109 123.54730454 -16.10859591 128.51934232 -27.62109375 131.01953125 C-29.96487489 131.36106984 -29.96487489 131.36106984 -31.02734375 132.59765625 C-49.38711365 133.42693157 -64.455878 130.64949948 -79.00390625 118.53515625 C-88.42149961 109.5175379 -93.78170384 99.09775591 -97.02734375 86.59765625 C-97.28753296 85.66747681 -97.28753296 85.66747681 -97.55297852 84.71850586 C-101.31459112 67.90063211 -96.66358279 50.9570467 -88.02734375 36.59765625 C-73.68562379 14.53079292 -50.09373319 0.96043546 -24.71484375 -4.71484375 C-14.84012497 -6.40157017 -8.26518232 -5.71714924 0 0 Z M-22.90234375 1.66015625 C-23.64266846 1.79591064 -24.38299316 1.93166504 -25.14575195 2.0715332 C-44.2405786 5.85644045 -60.41444699 14.80189969 -74.02734375 28.59765625 C-74.70539063 29.27699219 -75.3834375 29.95632812 -76.08203125 30.65625 C-88.09454293 43.49629026 -92.6902032 58.99073048 -92.42993164 76.22143555 C-91.8398063 91.58308368 -85.15535949 104.09581503 -74.02734375 114.59765625 C-62.13076662 124.25680374 -50.28980906 127.64508034 -35.02734375 126.59765625 C-19.31098287 124.27725061 -7.12503062 116.23003326 2.84765625 104.09765625 C15.79816147 86.55671373 16.04066967 61.99119644 13.15185547 41.2199707 C10.9410536 27.67108178 6.59108111 13.888778 -4.02734375 4.59765625 C-10.09659837 0.24024268 -15.76493964 0.34530628 -22.90234375 1.66015625 Z " fill="#090909" transform="translate(155.02734375,172.40234375)"/>
<path d="M0 0 C2.04135637 2.04135637 2.54390561 3.08539166 3.47265625 5.73828125 C3.73240234 6.47626953 3.99214844 7.21425781 4.25976562 7.97460938 C4.52466797 8.74611328 4.78957031 9.51761719 5.0625 10.3125 C5.33126953 11.07240234 5.60003906 11.83230469 5.87695312 12.61523438 C12.19228692 30.74228973 9.36536907 50.40184277 1.4375 67.625 C-5.49115986 81.83039457 -14.96959447 93.78234993 -26 105 C-26.5671875 105.61230469 -27.134375 106.22460938 -27.71875 106.85546875 C-29 108 -29 108 -31 108 C-31 108.66 -31 109.32 -31 110 C-32.4609375 111.5078125 -32.4609375 111.5078125 -34.375 113.125 C-35.00148438 113.66382813 -35.62796875 114.20265625 -36.2734375 114.7578125 C-38 116 -38 116 -40 116 C-40.3672148 114.29442382 -40.71815166 112.58533945 -41.0625 110.875 C-41.25972656 109.92367187 -41.45695312 108.97234375 -41.66015625 107.9921875 C-42.35436954 101.8799188 -40.9686534 98.47162686 -37.25488281 93.80053711 C-36.73764648 93.16510986 -36.22041016 92.52968262 -35.6875 91.875 C-28.56493692 82.75472347 -22.73936655 73.03026623 -17 63 C-16.60264648 62.32050293 -16.20529297 61.64100586 -15.79589844 60.94091797 C-6.63326384 45.23297178 -0.98359229 28.1572317 -0.375 9.9375 C-0.33632813 8.97650391 -0.29765625 8.01550781 -0.2578125 7.02539062 C-0.16461374 4.68377186 -0.07880815 2.34213963 0 0 Z " fill="#898B8D" transform="translate(515,144)"/>
<path d="M0 0 C4.07803994 1.91180544 7.29693881 4.57431796 10.6875 7.5 C11.30818359 8.03536377 11.92886719 8.57072754 12.56835938 9.12231445 C17.81940415 13.72106823 22.61413629 18.55828021 27 24 C27.87785156 25.08861328 27.87785156 25.08861328 28.7734375 26.19921875 C34.49381038 33.97055459 36.21403127 42.46371769 36 52 C21.46671333 56.94168217 10.2328383 59.54980828 -5 55 C-5.99 54.34 -6.98 53.68 -8 53 C-7.27247355 46.63209992 -5.40523484 41.05470443 -3.25390625 35.01171875 C-0.49970863 26.63507168 0.28541073 18.66057241 0.125 9.875 C0.11597656 8.91851562 0.10695313 7.96203125 0.09765625 6.9765625 C0.07439827 4.65076475 0.04172213 2.32552706 0 0 Z " fill="#39393A" transform="translate(529,165)"/>
<path d="M0 0 C7.74063751 3.54841603 10.98957702 10.39724387 14 18 C15.88526786 23.46277273 16.3364481 28.29077182 16.3125 34 C16.32861328 34.76828125 16.34472656 35.5365625 16.36132812 36.328125 C16.36671138 42.65883027 15.19900693 47.46781021 10.9375 52.375 C8.64721652 54.29588292 7.32114858 54.93882884 4.375 55.5 C-0.83760844 54.72776171 -3.60700359 51.90667714 -7 48 C-12.9643189 39.14548251 -15.35699141 30.55303646 -15.375 20 C-15.39949219 19.24460938 -15.42398437 18.48921875 -15.44921875 17.7109375 C-15.48295363 11.16637116 -13.61698297 5.88770535 -9.1875 1 C-5.796595 -0.550128 -3.70309809 -0.55546471 0 0 Z " fill="#010101" transform="translate(272,185)"/>
<path d="M0 0 C3.90401233 0.73335038 6.46148034 2.48583647 9.12109375 5.3984375 C11.1365801 8.60295416 12.71178506 11.88836155 14.12109375 15.3984375 C14.49105469 16.28789062 14.86101562 17.17734375 15.2421875 18.09375 C16.42797732 22.55231971 16.41182389 26.74361454 16.37109375 31.3359375 C16.37882812 32.20412109 16.3865625 33.07230469 16.39453125 33.96679688 C16.37161471 41.54644196 15.63755076 47.71973175 10.12109375 53.3984375 C7.41811118 55.52220952 5.82442598 55.40816431 2.30859375 55.5234375 C-2.30685769 54.7756828 -4.51515808 52.37219375 -7.33984375 48.79296875 C-14.2324002 38.06927051 -15.19576011 25.81602072 -13.87890625 13.3984375 C-11.6748475 6.0629215 -8.3965472 -0.40056922 0 0 Z " fill="#010101" transform="translate(137.87890625,211.6015625)"/>
<path d="M0 0 C1.07696789 2.13417491 2.12950031 4.2748578 3.1484375 6.4375 C5.32313052 10.98080771 7.18260574 14.60676066 11 18 C11 18.66 11 19.32 11 20 C11.99 20.33 12.98 20.66 14 21 C14 21.66 14 22.32 14 23 C17.25930855 24.67264276 20.57369435 26.17427928 23.9375 27.625 C24.95714844 28.07101563 25.97679688 28.51703125 27.02734375 28.9765625 C29.91957573 29.97231122 31.97386017 30.21177406 35 30 C32 42 32 42 29 54 C23.3212679 55.60169367 19.18658778 54.44821451 14 52 C6.03847288 47.37195781 2.02014052 38.42160649 -0.375 29.8125 C-2.13070324 20.12953063 -1.36098648 9.67933582 0 0 Z " fill="#1A1A1A" transform="translate(7,143)"/>
<path d="M0 0 C0.52980469 0.62132812 1.05960938 1.24265625 1.60546875 1.8828125 C6.95007854 6.60838918 14.97399252 7.12226293 21.8671875 6.84375 C29.42566309 5.91632968 36.73368315 4.26600318 44 2 C42.28094591 8.87621635 38.50313653 14.01835025 33 18.375 C22.96799519 23.80900261 11.95695982 23.08637605 1.25 20.1875 C-2.63521325 19.02991934 -5.40339894 18.19089356 -8 15 C-7.50628906 14.16855469 -7.01257813 13.33710938 -6.50390625 12.48046875 C-5.86324219 11.39378906 -5.22257813 10.30710938 -4.5625 9.1875 C-3.92441406 8.10855469 -3.28632812 7.02960938 -2.62890625 5.91796875 C-0.919233 3.06819358 -0.919233 3.06819358 0 0 Z " fill="#1A1A1A" transform="translate(520,215)"/>
<path d="M0 0 C0.66 0 1.32 0 2 0 C3.15625 1.73046875 3.15625 1.73046875 4.5 4.1875 C7.11006378 8.69872134 10.00402456 12.82415737 13.1875 16.9375 C13.61546875 17.49268311 14.0434375 18.04786621 14.484375 18.61987305 C16.16797026 20.7748354 17.84247455 22.84555657 19.796875 24.76171875 C21 26 21 26 21.0625 27.875 C18.62534907 32.74930186 14.36731489 35.07261359 9.4375 36.875 C5.97818285 37.88663224 3.38895274 38.59480129 0 37 C-5.29553004 30.19146137 -4.50575351 21.19492124 -4 13 C-2.03087248 2.03087248 -2.03087248 2.03087248 0 0 Z " fill="#38383A" transform="translate(46,298)"/>
<path d="M0 0 C7.3463038 6.04989725 11.45900931 15.75405587 13 25 C13.64465697 32.99374642 12.17067781 40.68511057 7 47 C2.6426774 45.52869627 -0.71934134 43.16919385 -4.3125 40.375 C-5.13717773 39.74464844 -5.13717773 39.74464844 -5.97851562 39.1015625 C-7.32292168 38.07279961 -8.66201413 37.0370991 -10 36 C-9.40251953 35.22076172 -9.40251953 35.22076172 -8.79296875 34.42578125 C-8.26316406 33.72839844 -7.73335938 33.03101563 -7.1875 32.3125 C-6.66542969 31.62800781 -6.14335937 30.94351563 -5.60546875 30.23828125 C-2.14687548 25.41644684 -0.61388035 22.27760691 -0.3125 16.25 C-0.24804688 15.02539062 -0.18359375 13.80078125 -0.1171875 12.5390625 C0.02147107 8.35157373 0.07222532 4.18906838 0 0 Z " fill="#1A1A1A" transform="translate(328,34)"/>
<path d="M0 0 C1.82485695 3.32768032 1.95933568 6.34397222 1.0625 9.9375 C-1.20070481 13.60584978 -3.88924808 16.88924808 -6.9375 19.9375 C-11.26791603 20.55613086 -13.65055329 20.72497444 -17.43359375 18.41015625 C-20.0463863 16.36590736 -22.58982057 14.28517943 -24.9375 11.9375 C-25.41202061 7.82498809 -25.39349994 5.64508611 -23.125 2.125 C-16.75293354 -2.24798678 -7.03731226 -3.85917124 0 0 Z " fill="#090909" transform="translate(220.9375,255.0625)"/>
<path d="M0 0 C0.94875 0.825 1.8975 1.65 2.875 2.5 C7.48450321 6.45641138 12.24034752 10.22675437 17 14 C11.88514508 19.11485492 3.0915394 19.2540625 -3.75 19.4375 C-9.74418549 19.31554302 -13.34170107 18.79163867 -18 15 C-18.66 14.01 -19.32 13.02 -20 12 C-19.13117187 11.76925781 -18.26234375 11.53851563 -17.3671875 11.30078125 C-8.2502245 8.75202164 -8.2502245 8.75202164 -1 3 C-0.67 2.01 -0.34 1.02 0 0 Z " fill="#1A1A1A" transform="translate(67,324)"/>
<path d="M0 0 C0 3.57740957 -0.51344366 3.96946985 -2.9375 6.4375 C-9.44417662 12.54316872 -14.69361017 14.21935846 -23.625 13.9375 C-30.43242885 13.72646971 -33.03106808 14.46314912 -38 19 C-44.05128614 21.98992721 -50.97626737 21.92223699 -57.48828125 20.4296875 C-61.1669091 19.15191914 -62.80602897 18.29095655 -65 15 C-64.29230469 15.15726562 -63.58460938 15.31453125 -62.85546875 15.4765625 C-53.38340418 17.21289171 -46.10022098 16.24211625 -38 11 C-35.25416489 9.09043714 -32.59516252 7.10947568 -30 5 C-29.48695313 5.3196875 -28.97390625 5.639375 -28.4453125 5.96875 C-23.02208754 8.25586084 -16.74186391 7.69158077 -11 7 C-6.90539108 5.31072169 -3.1538095 3.1538095 0 0 Z " fill="#141415" transform="translate(247,281)"/>
<path d="M0 0 C0.33 0 0.66 0 1 0 C1.33848652 1.89492006 1.67056911 3.79098466 2 5.6875 C2.185625 6.74324219 2.37125 7.79898438 2.5625 8.88671875 C2.7790625 10.42779297 2.7790625 10.42779297 3 12 C3.165 12.845625 3.33 13.69125 3.5 14.5625 C2.78571798 18.04462483 0.87195207 19.03215355 -1.9765625 20.99414062 C-2.97816406 21.64672852 -2.97816406 21.64672852 -4 22.3125 C-5.00160156 22.9940918 -5.00160156 22.9940918 -6.0234375 23.68945312 C-7.67207658 24.8081725 -9.33476935 25.90613038 -11 27 C-12.78853666 23.42292669 -10.99399828 19.64384201 -10.0234375 15.921875 C-8.74318061 12.26679044 -7.04442537 10.35942966 -4 8 C-1.11059814 5.52336983 -0.5111156 3.78225542 0 0 Z " fill="#1A1A1A" transform="translate(467,248)"/>
<path d="M0 0 C-1.49836105 3.11198065 -3.19933758 6.0534615 -5 9 C-8.93619738 8.43768609 -11.79192446 7.38314183 -15 5 C-15 4.01 -15 3.02 -15 2 C-13.25364835 1.46706165 -11.50272348 0.94909337 -9.75 0.4375 C-8.77546875 0.14746094 -7.8009375 -0.14257812 -6.796875 -0.44140625 C-4.03756068 -0.99249836 -2.6087176 -0.93789609 0 0 Z " fill="#363638" transform="translate(217,260)"/>
<path d="M0 0 C1.875 0.1875 1.875 0.1875 4 1 C6.53629129 5.10637637 5.901316 8.40328841 5 13 C3.68 13.33 2.36 13.66 1 14 C-1.49688253 11.3990807 -1.99079384 10.10495017 -2.3125 6.4375 C-2 3 -2 3 0 0 Z " fill="#E2E2E3" transform="translate(269,195)"/>
<path d="M0 0 C4.56 0.48 4.56 0.48 6.375 2.625 C7.24717908 5.93928051 6.64016848 8.67112389 6 12 C4.68 12.33 3.36 12.66 2 13 C-0.69993991 9.17508513 -1.41527201 6.67181016 -1 2 C-0.67 1.34 -0.34 0.68 0 0 Z " fill="#E9E9E9" transform="translate(136,221)"/>
</svg>
